{"glyphs":{"0":{"ha":764,"x_min":60,"x_max":704,"o":"m 60 460 q 382 931 60 931 q 639 783 557 928 q 704 460 704 667 q 382 -11 704 -11 q 60 460 60 -11 m 382 90 q 592 331 565 94 q 600 460 600 396 q 549 738 600 646 q 382 829 497 829 q 215 738 267 829 q 164 460 164 646 q 215 182 164 274 q 382 90 267 90 z "},"1":{"ha":764,"x_min":188,"x_max":486,"o":"m 486 919 l 486 0 l 382 0 l 382 819 l 188 819 l 188 919 l 486 919 z "},"2":{"ha":764,"x_min":60,"x_max":693,"o":"m 693 656 q 658 540 693 596 q 568 436 622 485 q 451 344 514 388 q 332 260 388 301 q 238 180 276 219 q 196 100 200 140 l 690 100 l 690 0 l 72 0 l 72 57 q 110 181 72 125 q 206 287 149 238 q 331 380 264 336 q 455 468 397 424 q 551 558 513 513 q 589 657 589 604 q 535 783 589 738 q 386 829 482 829 q 233 788 290 829 q 164 669 175 747 l 60 669 q 161 858 71 786 q 379 931 251 931 q 611 853 525 931 q 693 656 693 778 z "},"3":{"ha":764,"x_min":57,"x_max":697,"o":"m 528 490 q 653 399 608 460 q 697 271 697 339 q 673 152 697 203 q 606 65 649 101 q 385 -11 517 -11 q 161 63 254 -11 q 57 243 68 138 l 163 243 q 236 135 174 179 q 385 90 300 90 q 539 140 481 90 q 593 261 593 188 q 538 383 593 333 q 394 436 479 436 l 289 436 l 289 532 l 382 532 q 508 574 454 532 q 563 682 563 615 q 517 789 563 749 q 383 829 471 829 q 244 790 294 829 q 183 699 193 751 l 82 699 q 167 857 92 790 q 376 931 250 931 q 589 861 510 931 q 667 686 667 794 q 619 561 667 622 q 528 490 578 504 z "},"4":{"ha":764,"x_min":43,"x_max":710,"o":"m 710 328 l 710 235 l 586 235 l 586 0 l 482 0 l 482 235 l 43 235 l 43 336 l 429 919 l 586 919 l 586 328 l 710 328 m 482 328 l 482 831 l 140 328 l 482 328 z "},"5":{"ha":764,"x_min":58,"x_max":697,"o":"m 225 553 q 376 596 296 596 q 514 574 457 596 q 611 511 571 551 q 697 294 697 428 q 608 78 697 167 q 389 -11 519 -11 q 142 75 231 -11 q 58 231 76 138 l 165 231 q 296 103 197 136 q 383 90 333 90 q 470 106 432 90 q 536 150 508 122 q 593 294 593 210 q 536 442 593 385 q 388 499 479 499 q 277 476 325 499 q 206 425 229 453 l 110 483 l 172 919 l 651 919 l 651 819 l 267 819 l 225 553 z "},"6":{"ha":764,"x_min":60,"x_max":717,"o":"m 574 706 q 408 829 535 829 q 222 719 286 829 q 164 456 164 622 q 262 550 197 514 q 398 586 326 586 q 526 564 469 586 q 625 503 583 542 q 717 288 717 417 q 624 74 717 161 q 400 -11 533 -11 q 146 110 232 -11 q 60 460 60 232 q 256 897 60 800 q 398 931 321 931 q 524 911 475 931 q 606 860 572 892 q 690 706 672 799 l 574 706 m 400 488 q 317 474 356 488 q 250 433 279 460 q 188 294 188 379 q 250 147 188 206 q 400 90 308 90 q 550 146 489 90 q 613 288 613 203 q 550 431 613 372 q 400 488 488 488 z "},"7":{"ha":764,"x_min":65,"x_max":703,"o":"m 703 919 l 703 801 l 319 0 l 199 0 l 596 819 l 65 819 l 65 919 l 703 919 z "},"8":{"ha":764,"x_min":53,"x_max":711,"o":"m 535 506 q 664 408 617 474 q 711 273 711 343 q 689 152 711 203 q 625 65 667 101 q 382 -11 538 -11 q 139 65 226 -11 q 53 264 53 140 q 100 408 53 343 q 229 506 147 474 q 136 569 176 525 q 89 699 89 624 q 164 867 89 803 q 382 931 239 931 q 600 867 525 931 q 675 699 675 803 q 582 531 675 589 q 535 506 557 514 m 382 550 q 508 583 456 550 q 571 692 571 624 q 518 795 571 760 q 382 831 465 831 q 246 795 299 831 q 193 692 193 760 q 251 587 193 624 q 382 550 308 550 m 382 89 q 547 136 486 89 q 607 265 607 183 q 540 406 607 351 q 382 454 478 454 q 224 406 286 454 q 157 267 157 351 q 217 136 157 183 q 382 89 278 89 z "},"9":{"ha":764,"x_min":47,"x_max":704,"o":"m 190 214 q 356 90 229 90 q 542 200 478 90 q 600 464 600 297 q 502 369 567 406 q 366 333 438 333 q 238 356 294 333 q 139 417 181 378 q 47 632 47 503 q 140 846 47 758 q 364 931 231 931 q 618 809 532 931 q 704 460 704 688 q 508 22 704 119 q 366 -11 443 -11 q 240 8 289 -11 q 158 60 192 28 q 74 214 92 121 l 190 214 m 364 432 q 446 446 407 432 q 514 486 485 460 q 576 625 576 540 q 514 772 576 714 q 364 829 456 829 q 214 774 275 829 q 151 632 151 717 q 214 489 151 547 q 364 432 276 432 z "}," ":{"ha":296,"x_min":0,"x_max":0,"o":""},"!":{"ha":307,"x_min":86,"x_max":221,"o":"m 221 142 l 221 0 l 86 0 l 86 142 l 221 142 m 115 254 l 89 919 l 218 919 l 192 254 l 115 254 z "},"\"":{"ha":440,"x_min":65,"x_max":375,"o":"m 163 615 l 92 615 l 65 919 l 189 919 l 163 615 m 349 615 l 278 615 l 251 919 l 375 919 l 349 615 z "},"#":{"ha":807,"x_min":63,"x_max":744,"o":"m 258 614 l 288 813 l 378 813 l 349 614 l 510 614 l 539 813 l 629 813 l 600 614 l 744 614 l 744 524 l 588 524 l 560 324 l 703 324 l 703 233 l 547 233 l 519 35 l 429 35 l 457 233 l 296 233 l 268 35 l 178 35 l 206 233 l 63 233 l 63 324 l 218 324 l 246 524 l 104 524 l 104 614 l 258 614 m 308 324 l 469 324 l 497 524 l 336 524 l 308 324 z "},"$":{"ha":883,"x_min":60,"x_max":821,"o":"m 821 248 q 821 187 821 248 q 726 59 821 126 q 465 -11 632 -8 l 465 -149 l 414 -149 l 414 -10 q 86 167 158 3 q 60 275 64 217 l 168 275 q 242 142 171 192 q 414 89 304 97 l 414 426 q 203 497 261 461 q 116 574 144 533 q 88 676 88 615 q 169 856 88 786 q 414 931 250 926 l 414 1036 l 465 1036 l 465 929 q 711 844 625 921 q 797 668 792 772 l 690 668 q 628 779 682 733 q 465 832 575 825 l 465 515 q 592 482 529 500 q 706 435 656 464 q 821 248 821 369 m 189 672 q 207 622 189 646 q 256 582 225 599 q 414 528 308 554 l 414 833 q 231 775 286 828 q 189 672 189 738 m 465 88 q 649 128 582 88 q 717 250 717 168 q 561 389 717 343 q 465 414 515 401 l 465 88 z "},"%":{"ha":1174,"x_min":58,"x_max":1115,"o":"m 424 848 q 449 810 424 848 q 475 653 475 772 q 419 467 475 533 q 266 400 363 400 q 114 467 169 400 q 58 663 58 533 q 114 860 58 793 q 271 925 169 926 q 424 848 372 924 m 267 479 q 383 599 360 483 q 389 663 389 631 q 356 800 389 754 q 266 846 324 846 q 176 800 208 846 q 143 663 143 754 q 176 525 143 571 q 267 479 208 479 m 1064 437 q 1090 399 1064 437 q 1115 242 1115 361 q 1059 56 1115 122 q 906 -11 1003 -11 q 754 56 810 -11 q 699 252 699 122 q 754 449 699 382 q 911 514 810 515 q 1064 437 1013 513 m 907 68 q 1022 188 1000 72 q 1029 251 1029 219 q 997 389 1029 343 q 906 435 964 435 q 816 389 849 435 q 783 251 783 343 q 816 114 783 160 q 907 68 849 68 m 949 931 l 311 -17 l 224 -17 l 861 931 l 949 931 z "},"&":{"ha":806,"x_min":51,"x_max":778,"o":"m 160 858 q 179 875 160 858 q 256 911 199 892 q 385 931 313 931 q 510 914 458 931 q 597 869 561 897 q 679 739 663 819 l 569 739 q 513 804 558 772 q 400 836 467 836 q 296 824 333 836 q 233 789 258 811 q 186 678 186 747 q 240 561 186 603 q 367 525 289 525 l 590 525 l 590 586 l 688 586 l 688 525 l 778 525 l 778 432 l 688 432 l 688 256 q 604 64 688 136 q 374 -11 519 -11 q 147 65 242 -11 q 51 264 51 143 q 96 397 51 339 q 221 486 140 456 q 128 556 169 501 q 82 675 82 617 q 101 779 82 733 q 160 858 121 825 m 354 432 q 211 381 269 432 q 156 261 156 333 q 217 136 156 189 q 374 82 278 82 q 536 133 476 82 q 590 247 590 178 l 590 432 l 354 432 z "},"'":{"ha":254,"x_min":65,"x_max":189,"o":"m 163 615 l 92 615 l 65 919 l 189 919 l 163 615 z "},"(":{"ha":340,"x_min":49,"x_max":321,"o":"m 321 972 q 154 389 154 703 q 321 -192 154 75 l 226 -192 q 49 390 49 85 q 226 972 49 696 l 321 972 z "},")":{"ha":340,"x_min":19,"x_max":292,"o":"m 19 -192 q 186 389 186 75 q 19 972 186 703 l 114 972 q 292 390 292 696 q 114 -192 292 85 l 19 -192 z "},"*":{"ha":518,"x_min":67,"x_max":451,"o":"m 303 717 l 406 603 l 335 551 l 260 683 l 183 551 l 113 603 l 215 715 l 67 747 l 93 831 l 232 768 l 215 919 l 303 919 l 286 768 l 425 831 l 451 747 l 303 717 z "},"+":{"ha":764,"x_min":69,"x_max":694,"o":"m 694 282 l 426 282 l 426 0 l 336 0 l 336 282 l 69 282 l 69 372 l 336 372 l 336 654 l 426 654 l 426 372 l 694 372 l 694 282 z "},",":{"ha":306,"x_min":15,"x_max":232,"o":"m 96 111 l 232 111 l 110 -185 l 15 -185 l 96 111 z "},"-":{"ha":494,"x_min":74,"x_max":421,"o":"m 74 461 l 421 461 l 421 360 l 74 360 l 74 461 z "},".":{"ha":282,"x_min":74,"x_max":208,"o":"m 208 142 l 208 0 l 74 0 l 74 142 l 208 142 z "},"/":{"ha":515,"x_min":50,"x_max":465,"o":"m 465 944 l 147 -44 l 50 -44 l 368 944 l 465 944 z "},":":{"ha":282,"x_min":74,"x_max":208,"o":"m 208 142 l 208 0 l 74 0 l 74 142 l 208 142 m 208 694 l 208 553 l 74 553 l 74 694 l 208 694 z "},";":{"ha":340,"x_min":35,"x_max":251,"o":"m 246 694 l 246 553 l 111 553 l 111 694 l 246 694 m 115 111 l 251 111 l 129 -185 l 35 -185 l 115 111 z "},"<":{"ha":764,"x_min":36,"x_max":704,"o":"m 704 11 l 36 306 l 36 393 l 704 689 l 704 581 l 142 350 l 704 119 l 704 11 z "},"=":{"ha":764,"x_min":79,"x_max":685,"o":"m 685 511 l 685 418 l 79 418 l 79 511 l 685 511 m 79 236 l 685 236 l 685 143 l 79 143 l 79 236 z "},">":{"ha":764,"x_min":58,"x_max":726,"o":"m 58 119 l 621 350 l 58 581 l 58 689 l 726 393 l 726 306 l 58 11 l 58 119 z "},"?":{"ha":715,"x_min":54,"x_max":646,"o":"m 646 675 q 629 586 646 625 q 587 516 613 547 q 531 458 561 485 q 475 403 501 432 q 417 254 417 336 l 315 254 q 431 489 315 383 q 524 594 501 551 q 547 671 547 636 q 539 733 547 706 q 510 783 531 760 q 369 835 463 835 q 214 778 274 835 q 153 647 158 725 l 54 647 q 142 846 60 765 q 361 931 229 931 q 578 853 503 931 q 646 675 646 782 m 433 142 l 433 0 l 299 0 l 299 142 l 433 142 z "},"@":{"ha":1183,"x_min":69,"x_max":1125,"o":"m 828 307 q 903 233 828 233 q 1026 299 978 233 q 1074 506 1074 364 q 950 807 1074 683 q 650 929 828 929 q 450 887 546 929 q 281 772 354 844 q 165 604 208 700 q 121 410 121 508 q 153 235 121 311 q 244 103 186 158 q 546 -18 367 -18 q 850 85 725 -18 l 881 43 q 544 -69 739 -69 q 353 -32 440 -69 q 203 70 265 6 q 105 220 140 135 q 69 410 69 306 q 116 620 69 515 q 242 805 163 725 q 428 933 322 885 q 639 981 533 981 q 831 944 744 981 q 982 845 917 908 q 1086 697 1047 782 q 1125 517 1125 611 q 1103 358 1125 422 q 1044 253 1081 294 q 867 171 974 171 q 756 219 786 171 q 738 268 740 240 q 536 171 658 171 q 358 236 422 171 q 300 401 300 299 q 392 646 300 551 q 614 739 482 739 q 797 642 746 739 l 811 731 l 894 731 l 829 325 q 828 319 828 322 l 828 307 m 775 497 q 735 617 775 568 q 615 665 693 665 q 449 596 513 665 q 383 410 383 525 q 426 292 383 339 q 563 246 469 246 q 716 319 657 246 q 775 497 775 393 z "},"A":{"ha":919,"x_min":4,"x_max":915,"o":"m 915 0 l 800 0 l 688 267 l 232 267 l 119 0 l 4 0 l 394 919 l 525 919 l 915 0 m 647 363 l 460 811 l 272 363 l 647 363 z "},"B":{"ha":919,"x_min":113,"x_max":863,"o":"m 815 676 q 692 469 815 525 q 847 332 806 432 q 863 242 863 293 q 686 19 863 75 q 549 0 628 0 l 113 0 l 113 919 l 525 919 q 751 839 674 919 q 815 676 815 775 m 217 508 l 525 508 q 696 596 653 508 q 711 662 711 626 q 701 724 711 697 q 671 772 692 751 q 536 821 625 821 l 217 821 l 217 508 m 560 99 q 707 138 656 99 q 758 250 758 178 q 708 364 758 319 q 549 414 653 414 l 217 414 l 217 99 l 560 99 z "},"C":{"ha":958,"x_min":54,"x_max":915,"o":"m 522 90 q 695 140 621 90 q 806 275 769 190 l 915 275 q 764 69 869 144 q 499 -11 651 -11 q 172 126 297 -11 q 54 460 54 258 q 172 793 54 661 q 499 931 297 931 q 764 850 651 931 q 915 644 869 775 l 806 644 q 695 779 769 729 q 522 829 621 829 q 358 801 424 829 q 249 722 293 772 q 158 460 158 621 q 249 197 158 299 q 522 90 343 90 z "},"D":{"ha":978,"x_min":113,"x_max":922,"o":"m 500 919 q 658 888 582 919 q 793 797 735 857 q 922 460 922 665 q 793 122 922 254 q 658 31 735 63 q 500 0 582 0 l 113 0 l 113 919 l 500 919 m 496 99 q 731 206 640 99 q 818 460 818 308 q 731 714 818 611 q 496 821 640 821 l 217 821 l 217 99 l 496 99 z "},"E":{"ha":844,"x_min":113,"x_max":789,"o":"m 217 819 l 217 511 l 728 511 l 728 410 l 217 410 l 217 100 l 789 100 l 789 0 l 113 0 l 113 919 l 789 919 l 789 819 l 217 819 z "},"F":{"ha":810,"x_min":113,"x_max":776,"o":"m 217 819 l 217 500 l 715 500 l 715 399 l 217 399 l 217 0 l 113 0 l 113 919 l 776 919 l 776 819 l 217 819 z "},"G":{"ha":1004,"x_min":54,"x_max":933,"o":"m 178 793 q 319 894 236 857 q 492 931 403 931 q 646 911 581 931 q 764 858 711 892 q 925 669 874 788 l 811 669 q 695 787 769 744 q 526 829 621 829 q 365 801 432 829 q 253 722 299 772 q 158 460 158 619 q 251 197 158 299 q 513 90 350 90 q 738 171 643 90 q 838 394 838 256 l 501 394 l 501 489 l 933 489 l 933 0 l 838 0 l 838 163 q 618 3 758 43 q 483 -11 567 -11 q 315 26 399 -11 q 174 126 232 63 q 54 460 54 257 q 178 793 54 660 z "},"H":{"ha":968,"x_min":113,"x_max":856,"o":"m 856 919 l 856 0 l 751 0 l 751 410 l 217 410 l 217 0 l 113 0 l 113 919 l 217 919 l 217 511 l 751 511 l 751 919 l 856 919 z "},"I":{"ha":329,"x_min":113,"x_max":217,"o":"m 217 0 l 113 0 l 113 919 l 217 919 l 217 0 z "},"J":{"ha":732,"x_min":21,"x_max":628,"o":"m 628 919 l 628 304 q 561 86 628 171 q 328 -11 483 -11 q 104 69 188 -11 q 21 246 31 143 l 129 246 q 186 142 139 185 q 333 90 242 90 q 492 164 444 90 q 524 308 524 215 l 524 919 l 628 919 z "},"K":{"ha":890,"x_min":113,"x_max":897,"o":"m 483 550 l 897 0 l 767 0 l 407 479 l 217 301 l 217 0 l 113 0 l 113 919 l 217 919 l 217 440 l 728 919 l 875 919 l 483 550 z "},"L":{"ha":740,"x_min":113,"x_max":718,"o":"m 217 919 l 217 100 l 718 100 l 718 0 l 113 0 l 113 919 l 217 919 z "},"M":{"ha":1119,"x_min":113,"x_max":1007,"o":"m 1007 919 l 1007 0 l 903 0 l 903 761 l 563 324 l 217 761 l 217 0 l 113 0 l 113 919 l 233 919 l 563 483 l 886 919 l 1007 919 z "},"N":{"ha":1018,"x_min":113,"x_max":906,"o":"m 906 919 l 906 0 l 785 0 l 217 776 l 217 0 l 113 0 l 113 919 l 233 919 l 801 146 l 801 919 l 906 919 z "},"O":{"ha":1042,"x_min":54,"x_max":988,"o":"m 521 931 q 858 793 726 931 q 988 460 988 660 q 858 126 988 260 q 521 -11 726 -11 q 183 126 315 -11 q 54 460 54 260 q 183 793 54 660 q 521 931 315 931 m 521 90 q 786 197 685 90 q 883 460 883 300 q 786 722 883 619 q 521 829 685 829 q 256 722 357 829 q 158 460 158 619 q 256 197 158 300 q 521 90 357 90 z "},"P":{"ha":872,"x_min":113,"x_max":843,"o":"m 217 0 l 113 0 l 113 919 l 526 919 q 758 839 672 919 q 843 624 843 758 q 758 408 843 488 q 526 328 672 328 l 217 328 l 217 0 m 217 821 l 217 425 l 519 425 q 683 478 628 425 q 739 623 739 531 q 683 768 739 715 q 519 821 628 821 l 217 821 z "},"Q":{"ha":1042,"x_min":54,"x_max":1053,"o":"m 829 -129 q 997 -67 919 -129 l 1053 -142 q 828 -218 957 -218 q 636 -161 725 -218 q 501 -10 547 -104 q 178 133 303 -1 q 54 460 54 264 q 183 793 54 660 q 521 931 315 931 q 858 793 726 931 q 988 460 988 660 q 882 156 988 285 q 607 -3 776 25 q 744 -117 647 -83 q 829 -129 781 -129 m 521 90 q 786 197 685 90 q 883 460 883 300 q 786 722 883 619 q 521 829 685 829 q 256 722 357 829 q 158 460 158 619 q 256 197 158 300 q 521 90 357 90 z "},"R":{"ha":929,"x_min":113,"x_max":882,"o":"m 217 0 l 113 0 l 113 919 l 553 919 q 778 842 693 919 q 863 632 863 765 q 719 397 863 460 q 640 371 679 379 l 882 0 l 758 0 l 536 353 l 217 353 l 217 0 m 217 451 l 535 451 q 738 543 682 451 q 758 632 758 578 q 699 770 758 719 q 540 821 639 821 l 217 821 l 217 451 z "},"S":{"ha":854,"x_min":44,"x_max":806,"o":"m 218 778 q 205 767 218 778 q 183 728 192 756 q 174 669 174 700 q 201 611 174 638 q 272 567 228 585 q 374 535 317 549 q 490 506 431 521 q 606 473 549 492 q 707 425 663 454 q 806 254 806 363 q 709 57 806 125 q 442 -11 613 -11 q 147 69 249 -11 q 44 275 57 142 l 153 275 q 244 131 158 181 q 443 88 319 88 q 701 250 701 88 q 655 338 701 306 q 538 390 608 369 q 387 429 468 411 q 235 476 306 447 q 119 551 165 504 q 72 676 72 597 q 158 860 72 789 q 418 931 244 931 q 689 850 593 931 q 782 668 776 779 l 675 668 q 528 819 661 782 q 410 833 481 833 q 292 817 340 833 q 218 778 244 801 z "},"T":{"ha":785,"x_min":19,"x_max":765,"o":"m 765 819 l 444 819 l 444 0 l 340 0 l 340 819 l 19 819 l 19 919 l 765 919 l 765 819 z "},"U":{"ha":985,"x_min":101,"x_max":883,"o":"m 883 919 l 883 396 q 774 101 883 213 q 492 -11 665 -11 q 210 101 319 -11 q 101 396 101 213 l 101 919 l 206 919 l 206 393 q 294 161 206 244 q 492 90 371 90 q 690 161 613 90 q 779 393 779 243 l 779 919 l 883 919 z "},"V":{"ha":872,"x_min":4,"x_max":868,"o":"m 868 919 l 496 0 l 376 0 l 4 919 l 118 919 l 436 118 l 754 919 l 868 919 z "},"W":{"ha":1331,"x_min":13,"x_max":1318,"o":"m 417 0 l 299 0 l 13 919 l 122 919 l 358 147 l 606 919 l 725 919 l 972 147 l 1208 919 l 1318 919 l 1032 0 l 914 0 l 665 772 l 417 0 z "},"X":{"ha":851,"x_min":-4,"x_max":856,"o":"m 489 475 l 856 0 l 724 0 l 425 394 l 128 0 l -4 0 l 363 475 l 21 919 l 153 919 l 425 558 l 699 919 l 831 919 l 489 475 z "},"Y":{"ha":874,"x_min":-1,"x_max":874,"o":"m 489 0 l 385 0 l 385 364 l -1 919 l 125 919 l 436 472 l 747 919 l 874 919 l 489 364 l 489 0 z "},"Z":{"ha":811,"x_min":40,"x_max":768,"o":"m 168 97 l 768 97 l 768 0 l 40 0 l 40 99 l 640 822 l 49 822 l 49 919 l 768 919 l 768 819 l 168 97 z "},"[":{"ha":389,"x_min":92,"x_max":351,"o":"m 183 857 l 183 -99 l 351 -99 l 351 -185 l 92 -185 l 92 943 l 351 943 l 351 857 l 183 857 z "},"\\":{"ha":515,"x_min":50,"x_max":465,"o":"m 147 944 l 465 -44 l 368 -44 l 50 944 l 147 944 z "},"]":{"ha":389,"x_min":38,"x_max":297,"o":"m 38 857 l 38 943 l 297 943 l 297 -185 l 38 -185 l 38 -99 l 206 -99 l 206 857 l 38 857 z "},"^":{"ha":694,"x_min":104,"x_max":603,"o":"m 603 493 l 506 493 l 354 792 l 201 493 l 104 493 l 311 928 l 396 928 l 603 493 z "},"_":{"ha":833,"x_min":69,"x_max":764,"o":"m 69 -101 l 764 -101 l 764 -178 l 69 -178 l 69 -101 z "},"`":{"ha":472,"x_min":129,"x_max":363,"o":"m 363 792 l 278 792 l 129 938 l 278 938 l 363 792 z "},"a":{"ha":826,"x_min":47,"x_max":736,"o":"m 632 111 q 383 -11 549 -11 q 139 93 233 -11 q 47 347 47 196 q 139 601 47 499 q 390 706 233 706 q 632 582 547 706 l 632 694 l 736 694 l 736 0 l 632 0 l 632 111 m 397 83 q 575 161 510 83 q 638 347 638 235 q 575 533 638 460 q 397 611 510 611 q 217 533 286 611 q 151 347 151 460 q 217 161 151 235 q 397 83 286 83 z "},"b":{"ha":825,"x_min":90,"x_max":779,"o":"m 194 582 q 443 706 279 706 q 686 601 593 706 q 779 347 779 499 q 686 93 779 196 q 435 -11 593 -11 q 194 111 278 -11 l 194 0 l 90 0 l 90 972 l 194 972 l 194 582 m 429 83 q 610 161 540 83 q 675 347 675 235 q 610 533 675 460 q 429 611 540 611 q 251 533 317 611 q 189 347 189 460 q 251 161 189 235 q 429 83 317 83 z "},"c":{"ha":756,"x_min":47,"x_max":717,"o":"m 411 83 q 529 121 478 83 q 604 218 581 158 l 717 218 q 600 53 685 115 q 389 -11 511 -11 q 140 93 236 -11 q 47 347 47 194 q 140 601 47 500 q 389 706 236 706 q 600 642 511 706 q 717 476 685 579 l 604 476 q 529 574 581 536 q 411 611 478 611 q 298 590 344 611 q 219 533 251 569 q 151 347 151 458 q 219 161 151 236 q 411 83 289 83 z "},"d":{"ha":826,"x_min":47,"x_max":736,"o":"m 632 111 q 383 -11 549 -11 q 139 93 233 -11 q 47 347 47 196 q 139 601 47 499 q 390 706 233 706 q 632 582 547 706 l 632 972 l 736 972 l 736 0 l 632 0 l 632 111 m 397 83 q 575 161 510 83 q 638 347 638 235 q 575 533 638 460 q 397 611 510 611 q 217 533 286 611 q 151 347 151 460 q 217 161 151 235 q 397 83 286 83 z "},"e":{"ha":774,"x_min":47,"x_max":736,"o":"m 400 83 q 601 200 540 83 l 715 200 q 601 47 679 106 q 399 -11 522 -11 q 143 93 242 -11 q 47 347 47 194 q 139 601 47 501 q 392 706 236 706 q 644 601 547 706 q 736 347 736 501 l 736 306 l 154 306 q 231 147 165 210 q 400 83 297 83 m 392 611 q 231 551 296 611 q 156 403 169 494 l 628 403 q 553 551 614 494 q 392 611 488 611 z "},"f":{"ha":426,"x_min":18,"x_max":403,"o":"m 389 885 q 278 852 315 885 q 242 747 242 819 l 242 694 l 403 694 l 403 603 l 242 603 l 242 0 l 138 0 l 138 603 l 18 603 l 18 694 l 138 694 l 138 756 q 206 926 138 869 q 394 983 274 983 l 403 983 l 403 885 l 389 885 z "},"g":{"ha":826,"x_min":47,"x_max":736,"o":"m 632 583 l 632 694 l 736 694 l 736 21 q 651 -208 736 -129 q 421 -286 565 -286 q 195 -231 276 -286 q 85 -83 114 -175 l 200 -83 q 403 -192 244 -192 q 578 -136 524 -192 q 632 28 632 -81 l 632 124 q 383 0 547 0 q 139 103 233 0 q 47 353 47 203 q 139 603 47 503 q 391 706 233 706 q 632 583 549 706 m 397 94 q 499 115 454 94 q 575 169 543 135 q 638 353 638 242 q 575 536 638 464 q 397 611 507 611 q 217 536 285 611 q 151 353 151 463 q 217 169 151 243 q 397 94 285 94 z "},"h":{"ha":786,"x_min":90,"x_max":703,"o":"m 194 972 l 194 586 q 286 671 232 636 q 410 706 340 706 q 529 686 479 706 q 617 628 579 667 q 703 404 703 543 l 703 0 l 599 0 l 599 401 q 544 554 599 497 q 404 611 490 611 q 256 553 317 611 q 194 400 194 493 l 194 0 l 90 0 l 90 972 l 194 972 z "},"i":{"ha":285,"x_min":86,"x_max":199,"o":"m 90 694 l 194 694 l 194 0 l 90 0 l 90 694 m 199 947 l 199 811 l 86 811 l 86 947 l 199 947 z "},"j":{"ha":285,"x_min":86,"x_max":199,"o":"m 90 694 l 194 694 l 194 -275 l 90 -275 l 90 694 m 199 947 l 199 811 l 86 811 l 86 947 l 199 947 z "},"k":{"ha":697,"x_min":90,"x_max":696,"o":"m 396 421 l 696 0 l 568 0 l 325 349 l 194 219 l 194 0 l 90 0 l 90 972 l 194 972 l 194 350 l 529 694 l 675 694 l 396 421 z "},"l":{"ha":285,"x_min":90,"x_max":194,"o":"m 194 0 l 90 0 l 90 972 l 194 972 l 194 0 z "},"m":{"ha":1206,"x_min":90,"x_max":1122,"o":"m 194 589 q 406 706 264 706 q 534 669 475 706 q 626 565 593 632 q 774 690 674 653 q 865 706 814 706 q 962 685 915 706 q 1044 628 1008 665 q 1122 419 1122 544 l 1122 0 l 1018 0 l 1018 417 q 969 558 1018 503 q 846 611 921 611 q 714 560 767 611 q 658 415 658 507 l 658 0 l 554 0 l 554 417 q 506 558 554 503 q 382 611 457 611 q 250 560 303 611 q 194 415 194 507 l 194 0 l 90 0 l 90 694 l 194 694 l 194 589 z "},"n":{"ha":786,"x_min":90,"x_max":703,"o":"m 194 694 l 194 586 q 286 671 232 636 q 410 706 340 706 q 529 686 479 706 q 617 628 579 667 q 703 404 703 543 l 703 0 l 599 0 l 599 401 q 544 554 599 497 q 404 611 490 611 q 256 553 317 611 q 194 400 194 493 l 194 0 l 90 0 l 90 694 l 194 694 z "},"o":{"ha":783,"x_min":47,"x_max":736,"o":"m 392 706 q 644 601 547 706 q 736 347 736 501 q 644 93 736 193 q 392 -11 547 -11 q 139 93 236 -11 q 47 347 47 193 q 139 601 47 501 q 392 706 236 706 m 392 83 q 569 161 504 83 q 632 347 632 235 q 569 533 632 460 q 392 611 504 611 q 214 533 279 611 q 151 347 151 460 q 214 161 151 235 q 392 83 279 83 z "},"p":{"ha":825,"x_min":90,"x_max":779,"o":"m 194 583 q 443 706 278 706 q 686 601 593 706 q 779 347 779 499 q 686 93 779 196 q 436 -11 593 -11 q 194 113 279 -11 l 194 -275 l 90 -275 l 90 694 l 194 694 l 194 583 m 429 611 q 251 533 317 611 q 189 347 189 460 q 251 161 189 235 q 429 83 317 83 q 610 161 540 83 q 675 347 675 235 q 610 533 675 460 q 429 611 540 611 z "},"q":{"ha":826,"x_min":47,"x_max":736,"o":"m 632 113 q 383 -11 547 -11 q 139 93 233 -11 q 47 347 47 196 q 139 601 47 499 q 391 706 233 706 q 632 583 549 706 l 632 694 l 736 694 l 736 -275 l 632 -275 l 632 113 m 397 611 q 217 533 286 611 q 151 347 151 460 q 217 161 151 235 q 397 83 286 83 q 575 161 510 83 q 638 347 638 235 q 575 533 638 460 q 397 611 510 611 z "},"r":{"ha":479,"x_min":90,"x_max":457,"o":"m 457 706 l 457 601 l 444 601 q 261 511 332 601 q 194 306 194 425 l 194 0 l 90 0 l 90 694 l 194 694 l 194 524 q 339 683 228 632 q 450 706 385 706 l 457 706 z "},"s":{"ha":669,"x_min":42,"x_max":626,"o":"m 499 508 q 324 617 485 617 q 164 517 164 617 q 198 453 164 475 q 283 418 232 432 q 395 392 335 404 q 507 359 456 381 q 592 300 558 338 q 626 197 626 263 q 550 42 626 96 q 343 -11 474 -11 q 122 58 204 -11 q 42 218 47 119 l 150 218 q 258 89 160 122 q 330 78 294 78 q 396 82 365 78 q 456 97 426 86 q 522 188 522 124 q 488 253 522 231 q 403 291 454 276 q 291 317 351 306 q 179 350 231 329 q 94 407 128 371 q 60 507 60 443 q 128 653 60 601 q 332 706 197 706 q 533 644 460 706 q 604 508 594 593 l 499 508 z "},"t":{"ha":453,"x_min":24,"x_max":429,"o":"m 165 0 l 165 603 l 24 603 l 24 694 l 165 694 l 165 943 l 269 943 l 269 694 l 429 694 l 429 603 l 269 603 l 269 0 l 165 0 z "},"u":{"ha":786,"x_min":83,"x_max":696,"o":"m 592 0 l 592 108 q 500 24 554 58 q 376 -11 446 -11 q 257 8 307 -11 q 169 67 207 28 q 83 290 83 151 l 83 694 l 188 694 l 188 293 q 242 140 188 197 q 382 83 296 83 q 531 142 469 83 q 592 294 592 201 l 592 694 l 696 694 l 696 0 l 592 0 z "},"v":{"ha":679,"x_min":7,"x_max":672,"o":"m 672 694 l 401 0 l 279 0 l 7 694 l 121 694 l 340 111 l 558 694 l 672 694 z "},"w":{"ha":1047,"x_min":13,"x_max":1035,"o":"m 524 554 l 350 0 l 231 0 l 13 694 l 124 694 l 290 129 l 467 694 l 581 694 l 757 129 l 924 694 l 1035 694 l 817 0 l 697 0 l 524 554 z "},"x":{"ha":669,"x_min":6,"x_max":664,"o":"m 394 358 l 664 0 l 531 0 l 335 283 l 138 0 l 6 0 l 274 358 l 22 694 l 156 694 l 335 432 l 513 694 l 646 694 l 394 358 z "},"y":{"ha":690,"x_min":6,"x_max":686,"o":"m 275 -275 l 163 -275 l 289 10 l 6 694 l 121 694 l 344 125 l 572 694 l 686 694 l 275 -275 z "},"z":{"ha":636,"x_min":43,"x_max":590,"o":"m 174 97 l 590 97 l 590 0 l 43 0 l 43 99 l 458 599 l 49 599 l 49 694 l 590 694 l 590 597 l 174 97 z "},"{":{"ha":408,"x_min":29,"x_max":374,"o":"m 133 379 q 231 200 231 331 l 231 17 q 260 -83 231 -56 q 374 -110 290 -110 l 374 -185 q 281 -180 324 -185 q 207 -156 239 -175 q 139 15 139 -112 l 139 215 q 100 317 139 279 q 29 347 68 347 l 29 411 q 92 435 68 411 q 139 543 139 479 l 139 743 q 281 939 139 922 q 374 943 324 943 l 374 868 q 260 841 290 868 q 231 742 231 814 l 231 558 q 201 439 231 481 q 133 379 172 397 z "},"|":{"ha":265,"x_min":90,"x_max":175,"o":"m 90 -249 l 90 1039 l 175 1039 l 175 -249 l 90 -249 z "},"}":{"ha":408,"x_min":35,"x_max":379,"o":"m 178 200 q 275 379 178 331 q 207 439 236 397 q 178 558 178 481 l 178 742 q 148 841 178 814 q 35 868 118 868 l 35 943 q 127 938 85 943 q 201 914 169 933 q 269 743 269 871 l 269 543 q 308 442 269 479 q 379 411 340 411 l 379 347 q 317 324 340 347 q 269 215 269 279 l 269 15 q 128 -181 269 -164 q 35 -185 85 -185 l 35 -110 q 148 -83 118 -110 q 178 17 178 -56 l 178 200 z "},"~":{"ha":728,"x_min":67,"x_max":664,"o":"m 67 299 q 222 485 88 485 q 347 456 274 485 q 456 413 421 426 q 519 400 492 400 q 565 413 546 400 q 596 442 585 425 q 612 475 607 458 q 619 500 617 492 l 664 500 q 631 387 650 421 q 583 333 611 353 q 515 314 556 314 q 432 327 474 314 q 350 356 390 340 q 274 384 310 371 q 211 397 239 397 q 164 385 183 397 q 133 357 144 374 q 117 324 122 340 q 110 299 113 307 l 67 299 z "},"¡":{"ha":288,"x_min":78,"x_max":213,"o":"m 213 553 l 213 694 l 78 694 l 78 553 l 213 553 m 107 440 l 81 -225 l 210 -225 l 183 440 l 107 440 z "},"¢":{"ha":797,"x_min":67,"x_max":736,"o":"m 439 83 q 553 125 507 89 q 624 218 600 161 l 736 218 q 630 60 708 122 q 439 -10 551 -1 l 439 -140 l 389 -140 l 389 -11 q 154 100 242 -3 q 67 347 67 203 q 154 594 67 492 q 389 706 242 697 l 389 826 l 439 826 l 439 704 q 630 634 551 696 q 736 476 708 572 l 624 476 q 553 569 600 533 q 439 611 507 606 l 439 83 m 171 347 q 229 172 171 247 q 389 85 290 96 l 389 610 q 229 522 288 596 q 171 347 171 447 z "},"£":{"ha":799,"x_min":67,"x_max":738,"o":"m 456 931 q 576 913 528 931 q 657 867 624 896 q 738 719 719 813 l 639 719 q 535 822 615 796 q 455 832 506 832 q 367 812 404 832 q 310 761 329 792 q 279 619 279 713 l 279 524 l 485 524 l 485 443 l 279 443 l 279 97 l 700 97 l 700 0 l 67 0 l 67 85 l 178 97 l 178 443 l 79 443 l 79 524 l 178 524 l 178 624 q 242 838 178 756 q 456 931 314 931 z "},"¤":{"ha":788,"x_min":67,"x_max":721,"o":"m 632 625 q 689 451 689 551 q 632 274 689 350 l 721 185 l 660 122 l 569 213 q 395 154 494 154 q 218 213 296 154 l 129 122 l 67 185 l 156 274 q 99 451 99 350 q 156 625 99 551 l 67 715 l 129 778 l 218 688 q 395 744 294 744 q 569 688 496 744 l 660 778 l 721 715 l 632 625 m 394 239 q 476 256 438 239 q 544 300 515 272 q 606 450 606 363 q 544 599 606 538 q 394 661 482 661 q 245 599 307 661 q 183 450 183 538 q 245 301 183 363 q 394 239 307 239 z "},"¥":{"ha":913,"x_min":51,"x_max":861,"o":"m 136 264 l 404 264 l 404 364 l 381 401 l 136 401 l 136 492 l 322 492 l 51 919 l 178 919 l 456 472 l 735 919 l 861 919 l 589 492 l 776 492 l 776 401 l 532 401 l 508 364 l 508 264 l 776 264 l 776 174 l 508 174 l 508 0 l 404 0 l 404 174 l 136 174 l 136 264 z "},"§":{"ha":721,"x_min":65,"x_max":658,"o":"m 550 103 q 604 -28 604 43 q 578 -141 604 -100 q 514 -206 551 -182 q 347 -247 446 -247 q 157 -182 235 -247 q 74 -26 82 -119 l 169 -26 q 226 -114 178 -78 q 347 -154 279 -154 q 459 -126 415 -154 q 503 -50 503 -99 q 470 34 503 -1 q 389 102 438 69 q 284 167 340 135 q 179 235 228 199 q 98 315 131 272 q 65 414 65 358 q 172 578 65 535 q 119 713 119 643 q 144 823 119 782 q 208 888 169 864 q 371 929 275 929 q 558 864 482 929 q 639 708 631 801 l 543 708 q 489 796 535 760 q 371 836 439 836 q 262 808 303 836 q 221 733 221 781 q 253 649 221 685 q 335 580 286 613 q 440 515 383 547 q 544 447 496 483 q 626 367 593 410 q 658 268 658 324 q 550 103 658 146 m 500 151 q 557 235 557 178 q 523 328 557 292 q 439 397 489 364 q 331 460 389 429 q 224 531 272 492 q 167 447 167 503 q 201 353 167 390 q 285 285 235 317 q 393 222 335 253 q 500 151 451 190 z "},"¨":{"ha":588,"x_min":103,"x_max":444,"o":"m 226 919 l 226 804 l 103 804 l 103 919 l 226 919 m 444 919 l 444 804 l 321 804 l 321 919 l 444 919 z "},"©":{"ha":1082,"x_min":65,"x_max":1017,"o":"m 697 531 q 648 611 688 582 q 538 640 608 640 q 421 590 467 640 q 375 457 375 539 q 421 324 375 375 q 538 274 467 274 q 648 303 608 274 q 697 383 688 332 l 790 383 q 706 233 774 286 q 540 185 642 185 q 350 261 419 185 q 281 457 281 339 q 350 651 281 576 q 540 728 421 728 q 760 617 693 728 q 790 531 782 581 l 697 531 m 540 933 q 726 896 639 933 q 877 794 813 858 q 979 642 942 729 q 1017 457 1017 556 q 979 272 1017 358 q 877 122 942 186 q 726 19 813 57 q 540 -18 639 -18 q 356 19 442 -18 q 205 122 269 57 q 103 272 140 186 q 65 457 65 358 q 103 642 65 556 q 205 794 140 729 q 356 896 269 858 q 540 933 442 933 m 540 50 q 829 169 710 50 q 917 299 885 225 q 949 458 949 374 q 917 616 949 542 q 829 746 885 690 q 540 865 710 865 q 253 746 369 865 q 133 457 133 625 q 165 299 133 374 q 253 169 197 225 q 540 50 369 50 z "},"ª":{"ha":515,"x_min":51,"x_max":436,"o":"m 364 860 l 364 919 l 436 919 l 436 550 l 364 550 l 364 610 q 232 544 319 544 q 100 600 150 544 q 51 735 51 654 q 100 869 51 815 q 233 925 150 925 q 364 860 317 925 m 124 734 q 124 707 124 734 q 154 646 124 681 q 243 611 185 611 q 333 647 301 611 q 365 735 365 682 q 333 823 365 788 q 243 858 301 858 q 154 823 185 858 q 124 734 124 788 z "},"«":{"ha":676,"x_min":54,"x_max":614,"o":"m 424 360 l 614 79 l 490 79 l 310 360 l 490 640 l 614 640 l 424 360 m 168 360 l 358 79 l 235 79 l 54 360 l 235 640 l 358 640 l 168 360 z "},"¬":{"ha":824,"x_min":86,"x_max":735,"o":"m 86 540 l 735 540 l 735 258 l 635 258 l 635 446 l 86 446 l 86 540 z "},"®":{"ha":1082,"x_min":65,"x_max":1017,"o":"m 775 565 q 747 481 775 518 q 671 429 719 444 q 764 304 747 407 q 768 257 768 278 l 768 192 l 672 192 l 672 244 q 660 331 672 304 q 565 386 633 386 l 431 386 l 431 192 l 333 192 l 333 722 l 558 722 q 723 679 671 722 q 775 565 775 636 m 551 469 q 644 492 610 469 q 679 554 679 514 q 651 617 679 594 q 549 640 624 640 l 431 640 l 431 469 l 551 469 m 540 933 q 726 896 639 933 q 877 794 813 858 q 979 642 942 729 q 1017 457 1017 556 q 979 272 1017 358 q 877 122 942 186 q 726 19 813 57 q 540 -18 639 -18 q 356 19 442 -18 q 205 122 269 57 q 103 272 140 186 q 65 457 65 358 q 103 642 65 556 q 205 794 140 729 q 356 896 269 858 q 540 933 442 933 m 540 50 q 829 169 710 50 q 917 299 885 225 q 949 458 949 374 q 917 616 949 542 q 829 746 885 690 q 540 865 710 865 q 253 746 369 865 q 133 457 133 625 q 165 299 133 374 q 253 169 197 225 q 540 50 369 50 z "},"¯":{"ha":531,"x_min":79,"x_max":446,"o":"m 446 808 l 79 808 l 79 892 l 446 892 l 446 808 z "},"°":{"ha":463,"x_min":50,"x_max":413,"o":"m 231 926 q 359 873 306 926 q 413 744 413 819 q 358 617 413 672 q 231 564 308 564 q 103 617 156 564 q 50 744 50 669 q 103 872 50 822 q 231 926 158 926 m 129 745 q 129 724 129 745 q 159 673 129 703 q 231 643 189 643 q 303 673 274 643 q 333 745 333 703 q 303 817 333 788 q 231 847 274 847 q 159 817 189 847 q 129 745 129 788 z "},"±":{"ha":764,"x_min":69,"x_max":694,"o":"m 694 383 l 426 383 l 426 169 l 336 169 l 336 383 l 69 383 l 69 474 l 336 474 l 336 688 l 426 688 l 426 474 l 694 474 l 694 383 m 694 0 l 69 0 l 69 86 l 694 86 l 694 0 z "},"²":{"ha":492,"x_min":64,"x_max":418,"o":"m 418 772 q 307 603 418 676 q 247 564 276 583 q 161 489 178 518 l 418 489 l 418 417 l 72 417 l 72 457 q 207 626 72 540 q 315 710 288 678 q 342 775 342 742 q 315 829 342 808 q 247 850 289 850 q 177 824 206 850 q 142 761 149 799 l 64 761 q 123 877 74 831 q 249 924 172 924 q 372 881 326 924 q 418 772 418 838 z "},"³":{"ha":465,"x_min":53,"x_max":410,"o":"m 324 683 q 389 634 368 664 q 410 563 410 604 q 395 494 410 521 q 356 450 381 468 q 236 411 307 411 q 111 456 164 411 q 53 565 58 501 l 129 565 q 166 507 136 532 q 239 482 196 482 q 308 507 282 482 q 333 564 333 532 q 310 622 333 596 q 240 649 288 649 l 175 649 l 175 714 l 235 714 q 293 733 268 714 q 318 783 318 753 q 297 833 318 813 q 234 853 275 853 q 169 831 193 853 q 140 782 146 810 l 65 782 q 114 881 71 839 q 231 925 161 925 q 348 892 301 925 q 394 803 394 860 q 324 683 394 717 z "},"´":{"ha":485,"x_min":119,"x_max":353,"o":"m 204 938 l 353 938 l 204 792 l 119 792 l 204 938 z "},"µ":{"ha":783,"x_min":100,"x_max":713,"o":"m 383 -11 q 204 64 274 -11 l 204 -275 l 100 -275 l 100 694 l 204 694 l 204 293 q 258 140 204 197 q 399 83 313 83 q 547 142 486 83 q 608 294 608 201 l 608 694 l 713 694 l 713 0 l 608 0 l 608 108 q 519 24 571 58 q 383 -11 468 -11 z "},"¶":{"ha":785,"x_min":50,"x_max":707,"o":"m 707 856 l 647 856 l 647 -196 l 565 -196 l 565 856 l 465 856 l 465 -196 l 383 -196 l 383 465 l 282 465 q 117 533 185 465 q 50 697 50 600 q 117 863 50 793 q 282 931 183 931 l 707 931 l 707 856 z "},"·":{"ha":282,"x_min":74,"x_max":208,"o":"m 208 478 l 208 336 l 74 336 l 74 478 l 208 478 z "},"¸":{"ha":417,"x_min":46,"x_max":368,"o":"m 210 -75 q 240 -72 224 -72 q 331 -101 293 -72 q 368 -179 368 -129 q 269 -285 368 -261 q 199 -292 242 -292 q 115 -274 157 -292 q 46 -235 72 -257 l 72 -189 q 190 -231 133 -231 q 267 -181 267 -231 q 244 -147 267 -160 q 195 -135 222 -135 q 144 -142 168 -135 l 115 -118 l 211 32 l 271 32 l 210 -75 z "},"¹":{"ha":294,"x_min":36,"x_max":214,"o":"m 214 919 l 214 418 l 138 418 l 138 847 l 36 847 l 36 919 l 214 919 z "},"º":{"ha":475,"x_min":51,"x_max":424,"o":"m 238 925 q 372 869 321 925 q 424 735 424 817 q 372 600 424 653 q 238 544 321 544 q 103 600 154 544 q 51 735 51 653 q 103 869 51 817 q 238 925 154 925 m 238 611 q 323 648 294 611 q 351 734 351 685 q 323 821 351 783 q 238 858 294 858 q 152 821 181 858 q 124 734 124 783 q 152 648 124 685 q 238 611 181 611 z "},"»":{"ha":676,"x_min":63,"x_max":622,"o":"m 63 640 l 186 640 l 367 360 l 186 79 l 63 79 l 253 360 l 63 640 m 318 640 l 442 640 l 622 360 l 442 79 l 318 79 l 508 360 l 318 640 z "},"¼":{"ha":990,"x_min":54,"x_max":931,"o":"m 931 190 l 931 122 l 867 122 l 867 0 l 790 0 l 790 122 l 561 122 l 561 190 l 768 501 l 867 501 l 867 190 l 931 190 m 790 418 l 639 190 l 790 190 l 790 418 m 232 919 l 232 418 l 156 418 l 156 847 l 54 847 l 54 919 l 232 919 m 136 -19 l 719 936 l 808 936 l 225 -19 l 136 -19 z "},"½":{"ha":1047,"x_min":54,"x_max":979,"o":"m 232 919 l 232 418 l 156 418 l 156 847 l 54 847 l 54 919 l 232 919 m 136 -19 l 719 936 l 808 936 l 225 -19 l 136 -19 m 979 357 q 868 188 979 261 q 808 149 838 168 q 722 74 739 103 l 979 74 l 979 1 l 633 1 l 633 42 q 768 211 633 125 q 876 294 849 263 q 903 360 903 326 q 876 414 903 393 q 808 435 850 435 q 738 409 767 435 q 703 346 710 383 l 625 346 q 684 462 635 415 q 810 508 733 508 q 933 465 888 508 q 979 357 979 422 z "},"¾":{"ha":1090,"x_min":60,"x_max":1033,"o":"m 1033 190 l 1033 122 l 969 122 l 969 0 l 893 0 l 893 122 l 664 122 l 664 190 l 871 501 l 969 501 l 969 190 l 1033 190 m 893 418 l 742 190 l 893 190 l 893 418 m 239 -19 l 822 936 l 911 936 l 328 -19 l 239 -19 m 331 683 q 396 634 375 664 q 417 563 417 604 q 402 494 417 521 q 364 450 388 468 q 243 411 314 411 q 119 456 171 411 q 60 565 65 501 l 136 565 q 173 507 143 532 q 246 482 203 482 q 315 507 289 482 q 340 564 340 532 q 317 622 340 596 q 247 649 294 649 l 182 649 l 182 714 l 242 714 q 300 733 275 714 q 325 783 325 753 q 303 833 325 813 q 241 853 282 853 q 176 831 200 853 q 147 782 153 810 l 72 782 q 121 881 78 839 q 238 925 168 925 q 355 892 308 925 q 401 803 401 860 q 331 683 401 717 z "},"¿":{"ha":704,"x_min":63,"x_max":656,"o":"m 63 19 q 79 108 63 69 q 122 179 96 147 q 177 236 147 210 q 233 292 207 263 q 292 440 292 358 l 393 440 q 278 206 393 311 q 184 101 207 143 q 161 24 161 58 q 169 -38 161 -11 q 199 -89 178 -65 q 339 -140 246 -140 q 494 -83 435 -140 q 556 47 550 -31 l 654 47 q 567 -151 649 -71 q 347 -236 479 -236 q 131 -158 206 -236 q 63 19 63 -87 m 275 553 l 275 694 l 410 694 l 410 553 l 275 553 z "},"À":{"ha":919,"x_min":4,"x_max":915,"o":"m 915 0 l 800 0 l 688 267 l 232 267 l 119 0 l 4 0 l 394 919 l 525 919 l 915 0 m 647 363 l 460 811 l 272 363 l 647 363 m 546 993 l 461 993 l 313 1139 l 461 1139 l 546 993 z "},"Á":{"ha":919,"x_min":4,"x_max":915,"o":"m 915 0 l 800 0 l 688 267 l 232 267 l 119 0 l 4 0 l 394 919 l 525 919 l 915 0 m 647 363 l 460 811 l 272 363 l 647 363 m 456 1139 l 604 1139 l 456 993 l 371 993 l 456 1139 z "},"Â":{"ha":919,"x_min":4,"x_max":915,"o":"m 915 0 l 800 0 l 688 267 l 232 267 l 119 0 l 4 0 l 394 919 l 525 919 l 915 0 m 647 363 l 460 811 l 272 363 l 647 363 m 542 993 l 460 1068 l 378 993 l 264 993 l 400 1139 l 521 1139 l 656 993 l 542 993 z "},"Ã":{"ha":919,"x_min":4,"x_max":915,"o":"m 915 0 l 800 0 l 688 267 l 232 267 l 119 0 l 4 0 l 394 919 l 525 919 l 915 0 m 647 363 l 460 811 l 272 363 l 647 363 m 360 1047 q 290 993 311 1047 l 247 993 q 324 1118 257 1085 q 382 1129 349 1129 q 467 1110 428 1129 q 526 1081 506 1090 q 573 1072 546 1072 q 616 1091 600 1072 q 638 1128 632 1110 l 682 1128 q 549 992 660 992 q 461 1010 499 992 q 403 1038 424 1029 q 360 1047 383 1047 z "},"Ä":{"ha":919,"x_min":4,"x_max":915,"o":"m 915 0 l 800 0 l 688 267 l 232 267 l 119 0 l 4 0 l 394 919 l 525 919 l 915 0 m 647 363 l 460 811 l 272 363 l 647 363 m 413 1115 l 413 1000 l 289 1000 l 289 1115 l 413 1115 m 631 1115 l 631 1000 l 507 1000 l 507 1115 l 631 1115 z "},"Å":{"ha":919,"x_min":4,"x_max":915,"o":"m 388 904 q 335 1000 335 942 q 371 1094 335 1058 q 458 1131 407 1131 q 547 1094 510 1131 q 585 1000 585 1060 q 531 904 585 940 l 915 0 l 800 0 l 688 267 l 232 267 l 119 0 l 4 0 l 388 904 m 647 363 l 460 811 l 272 363 l 647 363 m 399 1006 q 399 993 399 1006 q 417 963 399 981 q 460 944 435 944 q 503 963 485 944 q 521 1006 521 981 q 503 1050 521 1032 q 460 1068 485 1068 q 417 1050 435 1068 q 399 1006 399 1032 z "},"Æ":{"ha":1419,"x_min":-4,"x_max":1365,"o":"m 1365 919 l 1365 819 l 828 819 l 828 511 l 1304 511 l 1304 410 l 828 410 l 828 100 l 1365 100 l 1365 0 l 724 0 l 724 257 l 294 257 l 121 0 l -4 0 l 625 919 l 1365 919 m 724 819 l 676 819 l 360 353 l 724 353 l 724 819 z "},"Ç":{"ha":958,"x_min":54,"x_max":915,"o":"m 485 -75 q 515 -72 499 -72 q 606 -101 568 -72 q 643 -179 643 -129 q 544 -285 643 -261 q 474 -292 517 -292 q 390 -274 432 -292 q 321 -235 347 -257 l 347 -189 q 465 -231 408 -231 q 542 -181 542 -231 q 519 -147 542 -160 q 470 -135 497 -135 q 419 -142 443 -135 l 390 -118 l 460 -10 q 161 139 272 4 q 54 460 54 269 q 172 793 54 661 q 499 931 297 931 q 764 850 651 931 q 915 644 869 775 l 806 644 q 695 779 769 729 q 522 829 621 829 q 358 801 424 829 q 249 722 293 772 q 158 460 158 621 q 249 197 158 299 q 507 90 343 90 q 695 140 621 90 q 806 275 769 190 l 915 275 q 771 74 872 153 q 521 -11 669 -4 l 485 -75 z "},"È":{"ha":844,"x_min":113,"x_max":789,"o":"m 217 819 l 217 511 l 728 511 l 728 410 l 217 410 l 217 100 l 789 100 l 789 0 l 113 0 l 113 919 l 789 919 l 789 819 l 217 819 m 535 993 l 450 993 l 301 1139 l 450 1139 l 535 993 z "},"É":{"ha":844,"x_min":113,"x_max":789,"o":"m 217 819 l 217 511 l 728 511 l 728 410 l 217 410 l 217 100 l 789 100 l 789 0 l 113 0 l 113 919 l 789 919 l 789 819 l 217 819 m 456 1139 l 604 1139 l 456 993 l 371 993 l 456 1139 z "},"Ê":{"ha":844,"x_min":113,"x_max":789,"o":"m 217 819 l 217 511 l 728 511 l 728 410 l 217 410 l 217 100 l 789 100 l 789 0 l 113 0 l 113 919 l 789 919 l 789 819 l 217 819 m 542 993 l 460 1068 l 378 993 l 264 993 l 400 1139 l 521 1139 l 656 993 l 542 993 z "},"Ë":{"ha":844,"x_min":113,"x_max":789,"o":"m 217 819 l 217 511 l 728 511 l 728 410 l 217 410 l 217 100 l 789 100 l 789 0 l 113 0 l 113 919 l 789 919 l 789 819 l 217 819 m 413 1115 l 413 1000 l 289 1000 l 289 1115 l 413 1115 m 631 1115 l 631 1000 l 507 1000 l 507 1115 l 631 1115 z "},"Ì":{"ha":329,"x_min":24,"x_max":257,"o":"m 217 0 l 113 0 l 113 919 l 217 919 l 217 0 m 257 993 l 172 993 l 24 1139 l 172 1139 l 257 993 z "},"Í":{"ha":329,"x_min":71,"x_max":304,"o":"m 217 0 l 113 0 l 113 919 l 217 919 l 217 0 m 156 1139 l 304 1139 l 156 993 l 71 993 l 156 1139 z "},"Î":{"ha":329,"x_min":-31,"x_max":361,"o":"m 217 0 l 113 0 l 113 919 l 217 919 l 217 0 m 247 993 l 165 1068 l 83 993 l -31 993 l 106 1139 l 226 1139 l 361 993 l 247 993 z "},"Ï":{"ha":329,"x_min":-6,"x_max":336,"o":"m 217 0 l 113 0 l 113 919 l 217 919 l 217 0 m 118 1115 l 118 1000 l -6 1000 l -6 1115 l 118 1115 m 336 1115 l 336 1000 l 213 1000 l 213 1115 l 336 1115 z "},"Ð":{"ha":989,"x_min":10,"x_max":933,"o":"m 511 919 q 669 888 593 919 q 804 797 746 857 q 933 460 933 665 q 804 122 933 254 q 669 31 746 63 q 511 0 593 0 l 124 0 l 124 414 l 10 414 l 10 504 l 124 504 l 124 919 l 511 919 m 507 99 q 742 206 651 99 q 829 460 829 308 q 742 714 829 611 q 507 821 651 821 l 228 821 l 228 504 l 493 504 l 493 414 l 228 414 l 228 99 l 507 99 z "},"Ñ":{"ha":1018,"x_min":113,"x_max":906,"o":"m 906 919 l 906 0 l 785 0 l 217 776 l 217 0 l 113 0 l 113 919 l 233 919 l 801 146 l 801 919 l 906 919 m 410 1047 q 340 993 361 1047 l 297 993 q 374 1118 307 1085 q 432 1129 399 1129 q 517 1110 478 1129 q 576 1081 556 1090 q 623 1072 596 1072 q 666 1091 650 1072 q 688 1128 682 1110 l 732 1128 q 599 992 710 992 q 511 1010 549 992 q 453 1038 474 1029 q 410 1047 433 1047 z "},"Ò":{"ha":1042,"x_min":54,"x_max":988,"o":"m 521 931 q 858 793 726 931 q 988 460 988 660 q 858 126 988 260 q 521 -11 726 -11 q 183 126 315 -11 q 54 460 54 260 q 183 793 54 660 q 521 931 315 931 m 521 90 q 786 197 685 90 q 883 460 883 300 q 786 722 883 619 q 521 829 685 829 q 256 722 357 829 q 158 460 158 619 q 256 197 158 300 q 521 90 357 90 m 617 993 l 532 993 l 383 1139 l 532 1139 l 617 993 z "},"Ó":{"ha":1042,"x_min":54,"x_max":988,"o":"m 521 931 q 858 793 726 931 q 988 460 988 660 q 858 126 988 260 q 521 -11 726 -11 q 183 126 315 -11 q 54 460 54 260 q 183 793 54 660 q 521 931 315 931 m 521 90 q 786 197 685 90 q 883 460 883 300 q 786 722 883 619 q 521 829 685 829 q 256 722 357 829 q 158 460 158 619 q 256 197 158 300 q 521 90 357 90 m 504 1139 l 653 1139 l 504 993 l 419 993 l 504 1139 z "},"Ô":{"ha":1042,"x_min":54,"x_max":988,"o":"m 521 931 q 858 793 726 931 q 988 460 988 660 q 858 126 988 260 q 521 -11 726 -11 q 183 126 315 -11 q 54 460 54 260 q 183 793 54 660 q 521 931 315 931 m 521 90 q 786 197 685 90 q 883 460 883 300 q 786 722 883 619 q 521 829 685 829 q 256 722 357 829 q 158 460 158 619 q 256 197 158 300 q 521 90 357 90 m 603 993 l 521 1068 l 439 993 l 325 993 l 461 1139 l 582 1139 l 717 993 l 603 993 z "},"Õ":{"ha":1042,"x_min":54,"x_max":988,"o":"m 521 931 q 858 793 726 931 q 988 460 988 660 q 858 126 988 260 q 521 -11 726 -11 q 183 126 315 -11 q 54 460 54 260 q 183 793 54 660 q 521 931 315 931 m 521 90 q 786 197 685 90 q 883 460 883 300 q 786 722 883 619 q 521 829 685 829 q 256 722 357 829 q 158 460 158 619 q 256 197 158 300 q 521 90 357 90 m 418 1047 q 349 993 369 1047 l 306 993 q 382 1118 315 1085 q 440 1129 407 1129 q 525 1110 486 1129 q 584 1081 564 1090 q 631 1072 604 1072 q 674 1091 658 1072 q 696 1128 690 1110 l 740 1128 q 607 992 718 992 q 519 1010 557 992 q 462 1038 482 1029 q 418 1047 442 1047 z "},"Ö":{"ha":1042,"x_min":54,"x_max":988,"o":"m 521 931 q 858 793 726 931 q 988 460 988 660 q 858 126 988 260 q 521 -11 726 -11 q 183 126 315 -11 q 54 460 54 260 q 183 793 54 660 q 521 931 315 931 m 521 90 q 786 197 685 90 q 883 460 883 300 q 786 722 883 619 q 521 829 685 829 q 256 722 357 829 q 158 460 158 619 q 256 197 158 300 q 521 90 357 90 m 474 1115 l 474 1000 l 350 1000 l 350 1115 l 474 1115 m 692 1115 l 692 1000 l 568 1000 l 568 1115 l 692 1115 z "},"×":{"ha":764,"x_min":100,"x_max":664,"o":"m 451 357 l 664 144 l 596 75 l 382 289 l 169 75 l 100 144 l 314 357 l 100 571 l 169 639 l 382 426 l 596 639 l 664 571 l 451 357 z "},"Ø":{"ha":1042,"x_min":54,"x_max":988,"o":"m 521 931 q 813 836 689 931 l 906 944 l 950 906 l 856 797 q 988 460 988 665 q 858 126 988 260 q 521 -11 726 -11 q 231 85 357 -11 l 136 -24 l 93 15 l 188 122 q 54 460 54 258 q 183 793 54 660 q 521 931 315 931 m 744 760 q 521 829 651 829 q 256 722 357 829 q 158 460 158 619 q 254 200 158 301 l 744 760 m 297 161 q 521 90 392 90 q 786 197 685 90 q 883 460 883 300 q 789 721 883 618 l 297 161 z "},"Ù":{"ha":985,"x_min":101,"x_max":883,"o":"m 883 919 l 883 396 q 774 101 883 213 q 492 -11 665 -11 q 210 101 319 -11 q 101 396 101 213 l 101 919 l 206 919 l 206 393 q 294 161 206 244 q 492 90 371 90 q 690 161 613 90 q 779 393 779 243 l 779 919 l 883 919 m 572 993 l 488 993 l 339 1139 l 488 1139 l 572 993 z "},"Ú":{"ha":985,"x_min":101,"x_max":883,"o":"m 883 919 l 883 396 q 774 101 883 213 q 492 -11 665 -11 q 210 101 319 -11 q 101 396 101 213 l 101 919 l 206 919 l 206 393 q 294 161 206 244 q 492 90 371 90 q 690 161 613 90 q 779 393 779 243 l 779 919 l 883 919 m 493 1139 l 642 1139 l 493 993 l 408 993 l 493 1139 z "},"Û":{"ha":985,"x_min":101,"x_max":883,"o":"m 883 919 l 883 396 q 774 101 883 213 q 492 -11 665 -11 q 210 101 319 -11 q 101 396 101 213 l 101 919 l 206 919 l 206 393 q 294 161 206 244 q 492 90 371 90 q 690 161 613 90 q 779 393 779 243 l 779 919 l 883 919 m 574 993 l 492 1068 l 410 993 l 296 993 l 432 1139 l 553 1139 l 688 993 l 574 993 z "},"Ü":{"ha":985,"x_min":101,"x_max":883,"o":"m 883 919 l 883 396 q 774 101 883 213 q 492 -11 665 -11 q 210 101 319 -11 q 101 396 101 213 l 101 919 l 206 919 l 206 393 q 294 161 206 244 q 492 90 371 90 q 690 161 613 90 q 779 393 779 243 l 779 919 l 883 919 m 444 1115 l 444 1000 l 321 1000 l 321 1115 l 444 1115 m 663 1115 l 663 1000 l 539 1000 l 539 1115 l 663 1115 z "},"Ý":{"ha":874,"x_min":-1,"x_max":874,"o":"m 489 0 l 385 0 l 385 364 l -1 919 l 125 919 l 436 472 l 747 919 l 874 919 l 489 364 l 489 0 m 431 1139 l 579 1139 l 431 993 l 346 993 l 431 1139 z "},"Þ":{"ha":871,"x_min":113,"x_max":843,"o":"m 217 0 l 113 0 l 113 919 l 217 919 l 217 785 l 526 785 q 758 704 672 785 q 843 489 843 624 q 758 273 843 353 q 526 193 672 193 l 217 193 l 217 0 m 217 686 l 217 290 l 519 290 q 683 343 628 290 q 739 488 739 396 q 683 633 739 581 q 519 686 628 686 l 217 686 z "},"ß":{"ha":774,"x_min":90,"x_max":726,"o":"m 679 678 q 529 468 679 515 q 707 329 656 439 q 726 229 726 288 q 641 59 726 118 q 407 0 556 0 l 285 0 l 285 92 l 408 92 q 563 128 504 92 q 621 244 621 165 q 551 373 621 324 q 351 422 482 422 l 351 499 q 510 542 447 499 q 575 665 575 589 q 528 789 575 740 q 386 838 482 838 q 208 750 249 838 q 194 667 194 717 l 194 0 l 90 0 l 90 672 q 169 862 90 793 q 388 931 247 931 q 590 871 511 931 q 679 678 679 803 z "},"à":{"ha":826,"x_min":47,"x_max":736,"o":"m 632 111 q 383 -11 549 -11 q 139 93 233 -11 q 47 347 47 196 q 139 601 47 499 q 390 706 233 706 q 632 582 547 706 l 632 694 l 736 694 l 736 0 l 632 0 l 632 111 m 397 83 q 575 161 510 83 q 638 347 638 235 q 575 533 638 460 q 397 611 510 611 q 217 533 286 611 q 151 347 151 460 q 217 161 151 235 q 397 83 286 83 m 461 792 l 376 792 l 228 938 l 376 938 l 461 792 z "},"á":{"ha":826,"x_min":47,"x_max":736,"o":"m 632 111 q 383 -11 549 -11 q 139 93 233 -11 q 47 347 47 196 q 139 601 47 499 q 390 706 233 706 q 632 582 547 706 l 632 694 l 736 694 l 736 0 l 632 0 l 632 111 m 397 83 q 575 161 510 83 q 638 347 638 235 q 575 533 638 460 q 397 611 510 611 q 217 533 286 611 q 151 347 151 460 q 217 161 151 235 q 397 83 286 83 m 388 938 l 536 938 l 388 792 l 303 792 l 388 938 z "},"â":{"ha":826,"x_min":47,"x_max":736,"o":"m 632 111 q 383 -11 549 -11 q 139 93 233 -11 q 47 347 47 196 q 139 601 47 499 q 390 706 233 706 q 632 582 547 706 l 632 694 l 736 694 l 736 0 l 632 0 l 632 111 m 397 83 q 575 161 510 83 q 638 347 638 235 q 575 533 638 460 q 397 611 510 611 q 217 533 286 611 q 151 347 151 460 q 217 161 151 235 q 397 83 286 83 m 467 792 l 385 867 l 303 792 l 189 792 l 325 938 l 446 938 l 581 792 l 467 792 z "},"ã":{"ha":826,"x_min":47,"x_max":736,"o":"m 632 111 q 383 -11 549 -11 q 139 93 233 -11 q 47 347 47 196 q 139 601 47 499 q 390 706 233 706 q 632 582 547 706 l 632 694 l 736 694 l 736 0 l 632 0 l 632 111 m 397 83 q 575 161 510 83 q 638 347 638 235 q 575 533 638 460 q 397 611 510 611 q 217 533 286 611 q 151 347 151 460 q 217 161 151 235 q 397 83 286 83 m 300 846 q 231 792 251 846 l 188 792 q 264 917 197 883 q 322 928 289 928 q 407 908 368 928 q 466 880 446 889 q 513 871 486 871 q 556 890 540 871 q 578 926 572 908 l 622 926 q 489 790 600 790 q 401 809 439 790 q 344 837 364 828 q 300 846 324 846 z "},"ä":{"ha":826,"x_min":47,"x_max":736,"o":"m 632 111 q 383 -11 549 -11 q 139 93 233 -11 q 47 347 47 196 q 139 601 47 499 q 390 706 233 706 q 632 582 547 706 l 632 694 l 736 694 l 736 0 l 632 0 l 632 111 m 397 83 q 575 161 510 83 q 638 347 638 235 q 575 533 638 460 q 397 611 510 611 q 217 533 286 611 q 151 347 151 460 q 217 161 151 235 q 397 83 286 83 m 342 919 l 342 804 l 218 804 l 218 919 l 342 919 m 560 919 l 560 804 l 436 804 l 436 919 l 560 919 z "},"å":{"ha":826,"x_min":47,"x_max":736,"o":"m 632 111 q 383 -11 549 -11 q 139 93 233 -11 q 47 347 47 196 q 139 601 47 499 q 390 706 233 706 q 632 582 547 706 l 632 694 l 736 694 l 736 0 l 632 0 l 632 111 m 397 83 q 575 161 510 83 q 638 347 638 235 q 575 533 638 460 q 397 611 510 611 q 217 533 286 611 q 151 347 151 460 q 217 161 151 235 q 397 83 286 83 m 476 808 q 458 790 476 808 q 388 772 439 772 q 300 808 336 772 q 264 897 264 844 q 300 985 264 949 q 388 1021 336 1021 q 476 985 439 1021 q 514 897 514 950 q 476 808 514 843 m 328 897 q 328 884 328 897 q 346 853 328 871 q 389 835 364 835 q 432 853 414 835 q 450 897 450 871 q 432 940 450 922 q 389 958 414 958 q 346 940 364 958 q 328 897 328 922 z "},"æ":{"ha":1357,"x_min":47,"x_max":1319,"o":"m 736 594 q 975 706 817 706 q 1228 601 1131 706 q 1319 347 1319 501 l 1319 306 l 738 306 q 811 147 750 207 q 983 83 879 83 q 1112 121 1061 83 q 1190 218 1163 158 l 1301 218 q 1183 53 1268 117 q 975 -11 1097 -11 q 736 99 817 -11 l 736 0 l 632 0 l 632 111 q 383 -11 549 -11 q 139 93 233 -11 q 47 347 47 196 q 139 601 47 499 q 390 706 233 706 q 632 582 547 706 l 632 694 l 736 694 l 736 594 m 397 83 q 575 161 510 83 q 638 347 638 235 q 575 533 638 460 q 397 611 510 611 q 217 533 286 611 q 151 347 151 460 q 217 161 151 235 q 397 83 286 83 m 1211 403 q 1136 551 1197 494 q 975 611 1071 611 q 814 551 879 611 q 739 403 753 494 l 1211 403 z "},"ç":{"ha":756,"x_min":47,"x_max":717,"o":"m 379 -75 q 410 -72 393 -72 q 500 -101 463 -72 q 538 -179 538 -129 q 439 -285 538 -261 q 369 -292 411 -292 q 284 -274 326 -292 q 215 -235 242 -257 l 242 -189 q 360 -231 303 -231 q 436 -181 436 -231 q 414 -147 436 -160 q 365 -135 392 -135 q 314 -142 338 -135 l 285 -118 l 354 -8 q 131 106 214 3 q 47 347 47 206 q 140 601 47 500 q 389 706 236 706 q 600 642 511 706 q 717 476 685 579 l 604 476 q 529 574 581 536 q 411 611 478 611 q 298 590 344 611 q 219 533 251 569 q 151 347 151 458 q 219 161 151 236 q 403 83 289 83 q 529 121 478 83 q 604 218 581 158 l 717 218 q 608 60 688 122 q 415 -10 529 -3 l 379 -75 z "},"è":{"ha":774,"x_min":47,"x_max":736,"o":"m 400 83 q 601 200 540 83 l 715 200 q 601 47 679 106 q 399 -11 522 -11 q 143 93 242 -11 q 47 347 47 194 q 139 601 47 501 q 392 706 236 706 q 644 601 547 706 q 736 347 736 501 l 736 306 l 154 306 q 231 147 165 210 q 400 83 297 83 m 392 611 q 231 551 296 611 q 156 403 169 494 l 628 403 q 553 551 614 494 q 392 611 488 611 m 481 792 l 396 792 l 247 938 l 396 938 l 481 792 z "},"é":{"ha":774,"x_min":47,"x_max":736,"o":"m 400 83 q 601 200 540 83 l 715 200 q 601 47 679 106 q 399 -11 522 -11 q 143 93 242 -11 q 47 347 47 194 q 139 601 47 501 q 392 706 236 706 q 644 601 547 706 q 736 347 736 501 l 736 306 l 154 306 q 231 147 165 210 q 400 83 297 83 m 392 611 q 231 551 296 611 q 156 403 169 494 l 628 403 q 553 551 614 494 q 392 611 488 611 m 378 938 l 526 938 l 378 792 l 293 792 l 378 938 z "},"ê":{"ha":774,"x_min":47,"x_max":736,"o":"m 400 83 q 601 200 540 83 l 715 200 q 601 47 679 106 q 399 -11 522 -11 q 143 93 242 -11 q 47 347 47 194 q 139 601 47 501 q 392 706 236 706 q 644 601 547 706 q 736 347 736 501 l 736 306 l 154 306 q 231 147 165 210 q 400 83 297 83 m 392 611 q 231 551 296 611 q 156 403 169 494 l 628 403 q 553 551 614 494 q 392 611 488 611 m 474 792 l 392 867 l 310 792 l 196 792 l 332 938 l 453 938 l 588 792 l 474 792 z "},"ë":{"ha":774,"x_min":47,"x_max":736,"o":"m 400 83 q 601 200 540 83 l 715 200 q 601 47 679 106 q 399 -11 522 -11 q 143 93 242 -11 q 47 347 47 194 q 139 601 47 501 q 392 706 236 706 q 644 601 547 706 q 736 347 736 501 l 736 306 l 154 306 q 231 147 165 210 q 400 83 297 83 m 392 611 q 231 551 296 611 q 156 403 169 494 l 628 403 q 553 551 614 494 q 392 611 488 611 m 344 919 l 344 804 l 221 804 l 221 919 l 344 919 m 563 919 l 563 804 l 439 804 l 439 919 l 563 919 z "},"ì":{"ha":285,"x_min":6,"x_max":239,"o":"m 90 694 l 194 694 l 194 0 l 90 0 l 90 694 m 239 792 l 154 792 l 6 938 l 154 938 l 239 792 z "},"í":{"ha":285,"x_min":49,"x_max":282,"o":"m 90 694 l 194 694 l 194 0 l 90 0 l 90 694 m 133 938 l 282 938 l 133 792 l 49 792 l 133 938 z "},"î":{"ha":285,"x_min":-53,"x_max":339,"o":"m 90 694 l 194 694 l 194 0 l 90 0 l 90 694 m 225 792 l 143 867 l 61 792 l -53 792 l 83 938 l 204 938 l 339 792 l 225 792 z "},"ï":{"ha":285,"x_min":-28,"x_max":314,"o":"m 90 694 l 194 694 l 194 0 l 90 0 l 90 694 m 96 919 l 96 804 l -28 804 l -28 919 l 96 919 m 314 919 l 314 804 l 190 804 l 190 919 l 314 919 z "},"ð":{"ha":796,"x_min":47,"x_max":736,"o":"m 475 868 q 661 667 601 767 q 736 374 736 539 q 647 108 736 217 q 397 -11 550 -11 q 136 97 233 -11 q 47 351 47 194 q 133 608 47 504 q 365 714 221 714 q 568 632 492 714 q 435 775 528 710 q 386 808 410 792 l 308 757 l 264 810 l 324 849 q 235 894 278 875 l 272 993 q 417 911 346 958 l 521 981 l 565 928 l 475 868 m 392 82 q 569 164 503 82 q 632 351 632 240 q 564 539 632 461 q 381 621 493 621 q 210 542 274 621 q 151 351 151 467 q 214 164 151 240 q 392 82 281 82 z "},"ñ":{"ha":786,"x_min":90,"x_max":703,"o":"m 194 694 l 194 586 q 286 671 232 636 q 410 706 340 706 q 529 686 479 706 q 617 628 579 667 q 703 404 703 543 l 703 0 l 599 0 l 599 401 q 544 554 599 497 q 404 611 490 611 q 256 553 317 611 q 194 400 194 493 l 194 0 l 90 0 l 90 694 l 194 694 m 294 846 q 225 792 246 846 l 182 792 q 258 917 192 883 q 317 928 283 928 q 401 908 363 928 q 460 880 440 889 q 508 871 481 871 q 551 890 535 871 q 572 926 567 908 l 617 926 q 483 790 594 790 q 396 809 433 790 q 338 837 358 828 q 294 846 318 846 z "},"ò":{"ha":783,"x_min":47,"x_max":736,"o":"m 392 706 q 644 601 547 706 q 736 347 736 501 q 644 93 736 193 q 392 -11 547 -11 q 139 93 236 -11 q 47 347 47 193 q 139 601 47 501 q 392 706 236 706 m 392 83 q 569 161 504 83 q 632 347 632 235 q 569 533 632 460 q 392 611 504 611 q 214 533 279 611 q 151 347 151 460 q 214 161 151 235 q 392 83 279 83 m 485 792 l 400 792 l 251 938 l 400 938 l 485 792 z "},"ó":{"ha":783,"x_min":47,"x_max":736,"o":"m 392 706 q 644 601 547 706 q 736 347 736 501 q 644 93 736 193 q 392 -11 547 -11 q 139 93 236 -11 q 47 347 47 193 q 139 601 47 501 q 392 706 236 706 m 392 83 q 569 161 504 83 q 632 347 632 235 q 569 533 632 460 q 392 611 504 611 q 214 533 279 611 q 151 347 151 460 q 214 161 151 235 q 392 83 279 83 m 376 938 l 525 938 l 376 792 l 292 792 l 376 938 z "},"ô":{"ha":783,"x_min":47,"x_max":736,"o":"m 392 706 q 644 601 547 706 q 736 347 736 501 q 644 93 736 193 q 392 -11 547 -11 q 139 93 236 -11 q 47 347 47 193 q 139 601 47 501 q 392 706 236 706 m 392 83 q 569 161 504 83 q 632 347 632 235 q 569 533 632 460 q 392 611 504 611 q 214 533 279 611 q 151 347 151 460 q 214 161 151 235 q 392 83 279 83 m 474 792 l 392 867 l 310 792 l 196 792 l 332 938 l 453 938 l 588 792 l 474 792 z "},"õ":{"ha":783,"x_min":47,"x_max":736,"o":"m 392 706 q 644 601 547 706 q 736 347 736 501 q 644 93 736 193 q 392 -11 547 -11 q 139 93 236 -11 q 47 347 47 193 q 139 601 47 501 q 392 706 236 706 m 392 83 q 569 161 504 83 q 632 347 632 235 q 569 533 632 460 q 392 611 504 611 q 214 533 279 611 q 151 347 151 460 q 214 161 151 235 q 392 83 279 83 m 292 846 q 222 792 243 846 l 179 792 q 256 917 189 883 q 314 928 281 928 q 399 908 360 928 q 458 880 438 889 q 505 871 478 871 q 548 890 532 871 q 569 926 564 908 l 614 926 q 481 790 592 790 q 393 809 431 790 q 335 837 356 828 q 292 846 315 846 z "},"ö":{"ha":783,"x_min":47,"x_max":736,"o":"m 392 706 q 644 601 547 706 q 736 347 736 501 q 644 93 736 193 q 392 -11 547 -11 q 139 93 236 -11 q 47 347 47 193 q 139 601 47 501 q 392 706 236 706 m 392 83 q 569 161 504 83 q 632 347 632 235 q 569 533 632 460 q 392 611 504 611 q 214 533 279 611 q 151 347 151 460 q 214 161 151 235 q 392 83 279 83 m 344 919 l 344 804 l 221 804 l 221 919 l 344 919 m 563 919 l 563 804 l 439 804 l 439 919 l 563 919 z "},"÷":{"ha":764,"x_min":53,"x_max":711,"o":"m 711 374 l 711 278 l 53 278 l 53 374 l 711 374 m 321 153 l 443 153 l 443 24 l 321 24 l 321 153 m 321 628 l 443 628 l 443 499 l 321 499 l 321 628 z "},"ø":{"ha":783,"x_min":47,"x_max":736,"o":"m 392 706 q 610 633 519 706 l 685 717 l 721 685 l 646 599 q 736 347 736 500 q 644 93 736 193 q 392 -11 547 -11 q 175 61 261 -11 l 100 -24 l 64 8 l 139 94 q 47 347 47 194 q 139 601 47 501 q 392 706 236 706 m 544 558 q 392 611 483 611 q 214 533 279 611 q 151 347 151 460 q 207 171 151 243 l 544 558 m 578 522 l 240 136 q 403 83 301 83 q 568 159 504 83 q 632 343 632 235 q 578 522 632 451 z "},"ù":{"ha":786,"x_min":83,"x_max":696,"o":"m 592 0 l 592 108 q 500 24 554 58 q 376 -11 446 -11 q 257 8 307 -11 q 169 67 207 28 q 83 290 83 151 l 83 694 l 188 694 l 188 293 q 242 140 188 197 q 382 83 296 83 q 531 142 469 83 q 592 294 592 201 l 592 694 l 696 694 l 696 0 l 592 0 m 476 792 l 392 792 l 243 938 l 392 938 l 476 792 z "},"ú":{"ha":786,"x_min":83,"x_max":696,"o":"m 592 0 l 592 108 q 500 24 554 58 q 376 -11 446 -11 q 257 8 307 -11 q 169 67 207 28 q 83 290 83 151 l 83 694 l 188 694 l 188 293 q 242 140 188 197 q 382 83 296 83 q 531 142 469 83 q 592 294 592 201 l 592 694 l 696 694 l 696 0 l 592 0 m 383 938 l 532 938 l 383 792 l 299 792 l 383 938 z "},"û":{"ha":786,"x_min":83,"x_max":696,"o":"m 592 0 l 592 108 q 500 24 554 58 q 376 -11 446 -11 q 257 8 307 -11 q 169 67 207 28 q 83 290 83 151 l 83 694 l 188 694 l 188 293 q 242 140 188 197 q 382 83 296 83 q 531 142 469 83 q 592 294 592 201 l 592 694 l 696 694 l 696 0 l 592 0 m 471 792 l 389 867 l 307 792 l 193 792 l 329 938 l 450 938 l 585 792 l 471 792 z "},"ü":{"ha":786,"x_min":83,"x_max":696,"o":"m 592 0 l 592 108 q 500 24 554 58 q 376 -11 446 -11 q 257 8 307 -11 q 169 67 207 28 q 83 290 83 151 l 83 694 l 188 694 l 188 293 q 242 140 188 197 q 382 83 296 83 q 531 142 469 83 q 592 294 592 201 l 592 694 l 696 694 l 696 0 l 592 0 m 342 919 l 342 804 l 218 804 l 218 919 l 342 919 m 560 919 l 560 804 l 436 804 l 436 919 l 560 919 z "},"ý":{"ha":690,"x_min":6,"x_max":686,"o":"m 275 -275 l 163 -275 l 289 10 l 6 694 l 121 694 l 344 125 l 572 694 l 686 694 l 275 -275 m 347 938 l 496 938 l 347 792 l 263 792 l 347 938 z "},"þ":{"ha":825,"x_min":90,"x_max":779,"o":"m 194 582 q 443 706 279 706 q 686 601 593 706 q 779 347 779 499 q 686 93 779 196 q 435 -11 593 -11 q 194 111 278 -11 l 194 -275 l 90 -275 l 90 972 l 194 972 l 194 582 m 429 83 q 610 161 540 83 q 675 347 675 235 q 610 533 675 460 q 429 611 540 611 q 251 533 317 611 q 189 347 189 460 q 251 161 189 235 q 429 83 317 83 z "},"ÿ":{"ha":690,"x_min":6,"x_max":686,"o":"m 275 -275 l 163 -275 l 289 10 l 6 694 l 121 694 l 344 125 l 572 694 l 686 694 l 275 -275 m 299 919 l 299 804 l 175 804 l 175 919 l 299 919 m 517 919 l 517 804 l 393 804 l 393 919 l 517 919 z "},"ı":{"ha":285,"x_min":90,"x_max":194,"o":"m 90 694 l 194 694 l 194 0 l 90 0 l 90 694 z "},"Œ":{"ha":1589,"x_min":54,"x_max":1533,"o":"m 850 768 l 850 919 l 1533 919 l 1533 819 l 954 819 l 954 510 l 1472 510 l 1472 408 l 954 408 l 954 100 l 1533 100 l 1533 0 l 850 0 l 850 150 q 507 -11 728 -11 q 175 126 303 -11 q 54 460 54 258 q 175 793 54 661 q 515 931 303 931 q 850 768 726 931 m 507 90 q 765 197 671 90 q 856 460 856 299 q 765 722 856 621 q 507 829 671 829 q 249 722 343 829 q 158 460 158 621 q 249 197 158 299 q 507 90 343 90 z "},"œ":{"ha":1350,"x_min":47,"x_max":1313,"o":"m 679 536 q 792 659 719 613 q 956 706 864 706 q 1111 678 1047 706 q 1219 601 1175 650 q 1313 347 1313 501 l 1313 306 l 731 306 q 806 147 743 207 q 976 83 872 83 q 1105 121 1054 83 q 1183 218 1156 158 l 1294 218 q 1176 53 1261 117 q 978 -11 1090 -11 q 679 157 768 -11 q 568 35 640 81 q 404 -11 496 -11 q 249 17 313 -11 q 139 93 185 44 q 47 347 47 193 q 139 601 47 501 q 392 706 236 706 q 568 659 496 706 q 679 536 640 613 m 392 83 q 569 161 504 83 q 632 347 632 235 q 569 533 632 460 q 392 611 504 611 q 214 533 279 611 q 151 347 151 460 q 214 161 151 235 q 392 83 279 83 m 1204 403 q 1128 551 1190 494 q 968 611 1064 611 q 808 551 872 611 q 732 403 746 494 l 1204 403 z "},"Ÿ":{"ha":874,"x_min":-1,"x_max":874,"o":"m 489 0 l 385 0 l 385 364 l -1 919 l 125 919 l 436 472 l 747 919 l 874 919 l 489 364 l 489 0 m 389 1115 l 389 1000 l 265 1000 l 265 1115 l 389 1115 m 607 1115 l 607 1000 l 483 1000 l 483 1115 l 607 1115 z "},"ſ":{"ha":332,"x_min":18,"x_max":403,"o":"m 389 885 q 278 852 315 885 q 242 747 242 819 l 242 0 l 138 0 l 138 603 l 18 603 l 18 694 l 138 694 l 138 756 q 206 926 138 869 q 394 983 274 983 l 403 983 l 403 885 l 389 885 z "},"ƒ":{"ha":461,"x_min":-101,"x_max":506,"o":"m 506 983 l 489 885 l 475 885 q 360 856 403 885 q 303 747 317 826 l 274 578 l 435 578 l 435 510 l 261 510 l 171 13 q -101 -207 135 -196 l -86 -125 q 65 4 46 -115 l 157 510 l 38 510 l 38 578 l 169 578 l 200 756 q 300 932 222 881 q 497 983 378 983 l 506 983 z "},"Ǿ":{"ha":1042,"x_min":54,"x_max":988,"o":"m 521 931 q 813 836 689 931 l 906 944 l 950 906 l 856 797 q 988 460 988 665 q 858 126 988 260 q 521 -11 726 -11 q 231 85 357 -11 l 136 -24 l 93 15 l 188 122 q 54 460 54 258 q 183 793 54 660 q 521 931 315 931 m 744 760 q 521 829 651 829 q 256 722 357 829 q 158 460 158 619 q 254 200 158 301 l 744 760 m 297 161 q 521 90 392 90 q 786 197 685 90 q 883 460 883 300 q 789 721 883 618 l 297 161 m 504 1139 l 653 1139 l 504 993 l 419 993 l 504 1139 z "},"ǿ":{"ha":783,"x_min":47,"x_max":736,"o":"m 392 706 q 610 633 519 706 l 685 717 l 721 685 l 646 599 q 736 347 736 500 q 644 93 736 193 q 392 -11 547 -11 q 175 61 261 -11 l 100 -24 l 64 8 l 139 94 q 47 347 47 194 q 139 601 47 501 q 392 706 236 706 m 544 558 q 392 611 483 611 q 214 533 279 611 q 151 347 151 460 q 207 171 151 243 l 544 558 m 578 522 l 240 136 q 403 83 301 83 q 568 159 504 83 q 632 343 632 235 q 578 522 632 451 m 376 938 l 525 938 l 376 792 l 292 792 l 376 938 z "},"ˆ":{"ha":533,"x_min":68,"x_max":460,"o":"m 346 792 l 264 867 l 182 792 l 68 792 l 204 938 l 325 938 l 460 792 l 346 792 z "},"ˇ":{"ha":529,"x_min":68,"x_max":460,"o":"m 460 938 l 325 792 l 204 792 l 68 938 l 182 938 l 264 863 l 346 938 l 460 938 z "},"˘":{"ha":646,"x_min":149,"x_max":478,"o":"m 469 960 q 478 916 478 940 q 465 868 478 892 q 429 826 451 844 q 314 788 382 788 q 197 826 244 788 q 149 919 149 865 q 151 940 149 931 q 157 960 154 950 l 182 960 q 224 894 186 919 q 313 869 261 869 q 403 894 365 869 q 444 960 440 919 l 469 960 z "},"˙":{"ha":326,"x_min":103,"x_max":226,"o":"m 226 919 l 226 804 l 103 804 l 103 919 l 226 919 z "},"˚":{"ha":449,"x_min":103,"x_max":353,"o":"m 315 808 q 297 790 315 808 q 226 772 278 772 q 139 808 175 772 q 103 897 103 844 q 139 985 103 949 q 226 1021 175 1021 q 315 985 278 1021 q 353 897 353 950 q 315 808 353 843 m 167 897 q 167 884 167 897 q 185 853 167 871 q 228 835 203 835 q 271 853 253 835 q 289 897 289 871 q 271 940 289 922 q 228 958 253 958 q 185 940 203 958 q 167 897 167 922 z "},"˛":{"ha":429,"x_min":79,"x_max":332,"o":"m 332 -233 q 214 -268 269 -268 q 119 -243 158 -268 q 79 -174 79 -218 q 95 -104 79 -131 q 136 -58 111 -78 q 240 3 171 -28 l 318 3 l 281 -18 q 186 -125 186 -69 q 212 -176 186 -160 q 274 -193 238 -193 q 332 -179 310 -193 l 332 -233 z "},"˜":{"ha":643,"x_min":99,"x_max":533,"o":"m 211 846 q 142 792 163 846 l 99 792 q 175 917 108 883 q 233 928 200 928 q 318 908 279 928 q 377 880 357 889 q 424 871 397 871 q 467 890 451 871 q 489 926 483 908 l 533 926 q 400 790 511 790 q 313 809 350 790 q 255 837 275 828 q 211 846 235 846 z "},"˝":{"ha":726,"x_min":119,"x_max":569,"o":"m 204 938 l 353 938 l 204 792 l 119 792 l 204 938 m 421 938 l 569 938 l 421 792 l 336 792 l 421 938 z "},"Ω":{"ha":942,"x_min":63,"x_max":879,"o":"m 160 476 q 389 82 160 215 l 389 0 l 75 0 l 75 82 l 274 82 q 81 358 131 185 q 63 499 63 419 q 92 659 63 579 q 175 800 121 739 q 471 931 293 931 q 767 800 649 931 q 879 490 879 674 q 814 244 879 360 q 667 82 758 146 l 867 82 l 867 0 l 553 0 l 553 82 q 782 476 782 215 q 700 721 782 618 q 471 832 613 832 q 239 721 328 832 q 160 476 160 619 z "},"π":{"ha":803,"x_min":26,"x_max":774,"o":"m 639 165 q 743 65 639 65 l 743 -10 q 597 26 646 -10 q 538 179 538 71 l 538 589 l 264 589 l 264 0 l 161 0 l 161 589 l 26 589 l 26 681 l 774 681 l 774 589 l 639 589 l 639 165 z "},"–":{"ha":847,"x_min":76,"x_max":771,"o":"m 76 457 l 771 457 l 771 364 l 76 364 l 76 457 z "},"—":{"ha":1592,"x_min":101,"x_max":1490,"o":"m 101 457 l 1490 457 l 1490 364 l 101 364 l 101 457 z "},"‘":{"ha":303,"x_min":50,"x_max":267,"o":"m 186 660 l 50 660 l 172 956 l 267 956 l 186 660 z "},"’":{"ha":293,"x_min":56,"x_max":272,"o":"m 136 956 l 272 956 l 150 660 l 56 660 l 136 956 z "},"‚":{"ha":306,"x_min":15,"x_max":232,"o":"m 96 111 l 232 111 l 110 -185 l 15 -185 l 96 111 z "},"“":{"ha":511,"x_min":50,"x_max":475,"o":"m 186 660 l 50 660 l 172 956 l 267 956 l 186 660 m 394 660 l 258 660 l 381 956 l 475 956 l 394 660 z "},"”":{"ha":501,"x_min":56,"x_max":481,"o":"m 344 956 l 481 956 l 358 660 l 264 660 l 344 956 m 136 956 l 272 956 l 150 660 l 56 660 l 136 956 z "},"„":{"ha":514,"x_min":15,"x_max":440,"o":"m 304 111 l 440 111 l 318 -185 l 224 -185 l 304 111 m 96 111 l 232 111 l 110 -185 l 15 -185 l 96 111 z "},"†":{"ha":604,"x_min":53,"x_max":551,"o":"m 551 610 l 344 610 l 344 -182 l 260 -182 l 260 610 l 53 610 l 53 694 l 260 694 l 260 919 l 344 919 l 344 694 l 551 694 l 551 610 z "},"‡":{"ha":632,"x_min":67,"x_max":565,"o":"m 565 43 l 358 43 l 358 -182 l 274 -182 l 274 43 l 67 43 l 67 128 l 274 128 l 274 610 l 67 610 l 67 694 l 274 694 l 274 919 l 358 919 l 358 694 l 565 694 l 565 610 l 358 610 l 358 128 l 565 128 l 565 43 z "},"•":{"ha":472,"x_min":50,"x_max":422,"o":"m 50 444 q 104 576 50 522 q 236 631 158 631 q 368 576 314 631 q 422 444 422 522 q 368 313 422 367 q 236 258 314 258 q 104 313 158 258 q 50 444 50 367 z "},"…":{"ha":1093,"x_min":74,"x_max":1019,"o":"m 208 142 l 208 0 l 74 0 l 74 142 l 208 142 m 614 142 l 614 0 l 479 0 l 479 142 l 614 142 m 1019 142 l 1019 0 l 885 0 l 885 142 l 1019 142 z "},"‰":{"ha":1657,"x_min":60,"x_max":1600,"o":"m 425 848 q 451 810 425 848 q 476 653 476 772 q 420 467 476 533 q 267 400 364 400 q 115 467 171 400 q 60 663 60 533 q 115 860 60 793 q 272 925 171 926 q 425 848 374 924 m 268 479 q 383 599 361 483 q 390 663 390 631 q 358 800 390 754 q 267 846 325 846 q 177 800 210 846 q 144 663 144 754 q 177 525 144 571 q 268 479 210 479 m 1065 437 q 1091 399 1065 437 q 1117 242 1117 361 q 1060 56 1117 122 q 908 -11 1004 -11 q 756 56 811 -11 q 700 252 700 122 q 756 449 700 382 q 913 514 811 515 q 1065 437 1014 513 m 908 68 q 1025 188 1001 72 q 1031 251 1031 219 q 998 389 1031 343 q 908 435 965 435 q 817 389 850 435 q 785 251 785 343 q 817 114 785 160 q 908 68 850 68 m 950 931 l 313 -17 l 225 -17 l 863 931 l 950 931 m 1549 437 q 1574 399 1549 437 q 1600 242 1600 361 q 1544 56 1600 122 q 1391 -11 1488 -11 q 1239 56 1294 -11 q 1183 252 1183 122 q 1239 449 1183 382 q 1396 514 1294 515 q 1549 437 1497 513 m 1392 68 q 1508 188 1485 72 q 1514 251 1514 219 q 1481 389 1514 343 q 1391 435 1449 435 q 1301 389 1333 435 q 1268 251 1268 343 q 1301 114 1268 160 q 1392 68 1333 68 z "},"‹":{"ha":421,"x_min":54,"x_max":358,"o":"m 168 360 l 358 79 l 235 79 l 54 360 l 235 640 l 358 640 l 168 360 z "},"›":{"ha":421,"x_min":63,"x_max":367,"o":"m 63 640 l 186 640 l 367 360 l 186 79 l 63 79 l 253 360 l 63 640 z "},"⁄":{"ha":650,"x_min":-11,"x_max":661,"o":"m -11 -19 l 572 936 l 661 936 l 78 -19 l -11 -19 z "},"€":{"ha":851,"x_min":58,"x_max":786,"o":"m 576 90 q 767 150 685 90 l 786 50 q 561 -11 693 -11 q 294 94 393 -11 q 182 350 206 190 l 58 350 l 89 425 l 175 425 q 174 443 174 435 q 174 471 174 451 q 176 521 174 490 l 58 521 l 89 596 l 186 596 q 414 904 233 831 q 553 931 478 931 q 771 879 681 931 l 733 785 q 567 829 675 829 q 322 688 390 829 q 292 596 301 644 l 658 596 l 629 521 l 281 521 q 278 471 278 490 l 278 443 q 279 425 278 435 l 592 425 l 563 350 l 286 350 q 576 90 333 90 z "},"™":{"ha":1132,"x_min":86,"x_max":1028,"o":"m 86 854 l 86 919 l 483 919 l 483 854 l 318 854 l 318 435 l 250 435 l 250 854 l 86 854 m 957 919 l 1028 919 l 1028 435 l 960 435 l 960 808 l 799 601 l 635 808 l 635 435 l 567 435 l 567 919 l 639 919 l 799 707 l 957 919 z "},"∂":{"ha":838,"x_min":57,"x_max":764,"o":"m 428 914 q 256 839 331 914 l 199 886 q 454 1003 303 1000 q 690 890 608 1006 q 764 611 764 786 q 722 339 764 475 q 469 17 646 96 q 337 -11 406 -11 q 219 7 268 -11 q 133 58 169 25 q 57 235 57 126 q 172 486 57 382 q 428 586 282 586 q 564 561 513 586 q 656 500 615 536 q 664 607 664 542 q 653 731 664 672 q 614 829 642 789 q 428 914 557 914 m 244 422 q 226 406 244 422 q 186 347 208 390 q 164 242 164 304 q 215 135 164 179 q 334 90 265 90 q 451 116 403 90 q 536 186 499 142 q 638 413 611 275 q 549 466 600 444 q 434 488 499 488 q 324 470 369 488 q 244 422 279 453 z "},"∆":{"ha":804,"x_min":47,"x_max":757,"o":"m 436 919 l 757 0 l 47 0 l 372 919 l 436 919 m 149 99 l 610 99 l 386 776 l 149 99 z "},"∏":{"ha":932,"x_min":107,"x_max":825,"o":"m 107 -250 l 107 1039 l 825 1039 l 825 -250 l 724 -250 l 724 947 l 210 947 l 210 -250 l 107 -250 z "},"∑":{"ha":907,"x_min":58,"x_max":842,"o":"m 842 938 l 199 938 l 664 394 l 199 -149 l 842 -149 l 842 -250 l 58 -250 l 58 -157 l 521 394 l 58 947 l 58 1039 l 842 1039 l 842 938 z "},"−":{"ha":764,"x_min":69,"x_max":694,"o":"m 694 282 l 69 282 l 69 372 l 694 372 l 694 282 z "},"√":{"ha":933,"x_min":4,"x_max":929,"o":"m 551 -226 l 431 -226 l 197 290 l 35 228 l 4 306 l 265 408 l 497 -114 l 851 1028 l 929 1004 l 551 -226 z "},"∞":{"ha":1043,"x_min":64,"x_max":979,"o":"m 275 575 q 522 414 403 575 q 697 561 599 525 q 778 575 732 575 q 864 554 824 575 q 931 500 904 533 q 979 354 979 438 q 931 207 979 268 q 768 133 871 133 q 572 233 668 133 q 522 294 544 263 q 275 133 403 133 q 114 207 172 133 q 64 354 64 268 q 114 500 64 438 q 275 575 172 575 m 224 228 q 278 214 249 214 q 335 226 308 214 q 389 257 363 238 q 482 354 440 294 q 336 483 417 447 q 278 494 308 494 q 224 481 249 494 q 182 447 199 468 q 150 354 150 410 q 224 228 150 265 m 764 214 q 819 227 794 214 q 861 261 844 240 q 893 354 893 299 q 819 481 893 443 q 765 494 794 494 q 707 483 735 494 q 653 451 679 471 q 561 354 596 408 q 653 257 596 300 q 764 214 710 214 z "},"∫":{"ha":428,"x_min":25,"x_max":403,"o":"m 168 885 q 311 1081 168 1064 q 403 1085 353 1085 l 403 1010 q 290 983 319 1010 q 260 883 260 956 l 260 -47 q 117 -242 260 -226 q 25 -247 75 -247 l 25 -172 q 138 -145 108 -172 q 168 -46 168 -118 l 168 885 z "},"≈":{"ha":764,"x_min":83,"x_max":682,"o":"m 83 165 q 239 351 104 351 q 364 322 290 351 q 473 280 438 293 q 535 267 508 267 q 582 279 563 267 q 613 308 601 292 q 628 342 624 325 q 636 367 633 358 l 681 367 q 647 253 667 288 q 600 200 628 219 q 531 181 572 181 q 449 194 490 181 q 367 222 407 207 q 291 251 326 238 q 228 264 256 264 q 181 252 200 264 q 150 224 161 240 q 134 190 139 207 q 126 165 129 174 l 83 165 m 85 383 q 240 569 106 569 q 365 540 292 569 q 474 498 439 511 q 537 485 510 485 q 583 497 564 485 q 614 526 603 510 q 630 560 625 543 q 638 585 635 576 l 682 585 q 649 472 668 506 q 601 418 629 438 q 533 399 574 399 q 450 412 492 399 q 368 440 408 425 q 292 469 328 456 q 229 482 257 482 q 182 470 201 482 q 151 442 163 458 q 135 408 140 425 q 128 383 131 392 l 85 383 z "},"≠":{"ha":764,"x_min":79,"x_max":685,"o":"m 476 418 l 381 236 l 685 236 l 685 143 l 331 143 l 233 -40 l 160 -1 l 236 143 l 79 143 l 79 236 l 286 236 l 382 418 l 79 418 l 79 511 l 432 511 l 529 693 l 603 654 l 526 511 l 685 511 l 685 418 l 476 418 z "},"≤":{"ha":764,"x_min":43,"x_max":711,"o":"m 711 603 l 163 411 l 711 219 l 711 111 l 43 367 l 43 454 l 711 711 l 711 603 m 43 44 l 711 44 l 711 -47 l 43 -47 l 43 44 z "},"≥":{"ha":764,"x_min":51,"x_max":719,"o":"m 51 711 l 719 454 l 719 367 l 51 111 l 51 219 l 600 411 l 51 603 l 51 711 m 719 -47 l 51 -47 l 51 44 l 719 44 l 719 -47 z "},"◊":{"ha":858,"x_min":50,"x_max":808,"o":"m 808 460 l 483 -81 l 375 -81 l 50 460 l 375 1000 l 483 1000 l 808 460 m 694 460 l 429 900 l 164 460 l 429 19 l 694 460 z "},"ﬀ":{"ha":839,"x_min":18,"x_max":815,"o":"m 801 885 q 691 852 728 885 q 654 747 654 819 l 654 694 l 815 694 l 815 603 l 654 603 l 654 0 l 550 0 l 550 603 l 242 603 l 242 0 l 138 0 l 138 603 l 18 603 l 18 694 l 138 694 l 138 756 q 206 926 138 869 q 394 983 274 983 l 403 983 l 403 885 l 389 885 q 278 852 315 885 q 242 747 242 819 l 242 694 l 550 694 l 550 756 q 618 926 550 869 q 807 983 686 983 l 815 983 l 815 885 l 801 885 z "},"ﬁ":{"ha":689,"x_min":18,"x_max":603,"o":"m 494 603 l 242 603 l 242 0 l 138 0 l 138 603 l 18 603 l 18 694 l 138 694 l 138 756 q 206 926 138 869 q 394 983 274 983 l 403 983 l 403 885 l 389 885 q 278 852 315 885 q 242 747 242 819 l 242 694 l 599 694 l 599 0 l 494 0 l 494 603 m 603 947 l 603 811 l 490 811 l 490 947 l 603 947 z "},"ﬂ":{"ha":689,"x_min":18,"x_max":599,"o":"m 389 885 q 278 852 315 885 q 242 747 242 819 l 242 694 l 403 694 l 403 603 l 242 603 l 242 0 l 138 0 l 138 603 l 18 603 l 18 694 l 138 694 l 138 756 q 206 926 138 869 q 394 983 274 983 l 403 983 l 403 885 l 389 885 m 599 0 l 494 0 l 494 972 l 599 972 l 599 0 z "},"ﬃ":{"ha":1101,"x_min":18,"x_max":1015,"o":"m 907 603 l 654 603 l 654 0 l 550 0 l 550 603 l 242 603 l 242 0 l 138 0 l 138 603 l 18 603 l 18 694 l 138 694 l 138 756 q 206 926 138 869 q 394 983 274 983 l 403 983 l 403 885 l 389 885 q 278 852 315 885 q 242 747 242 819 l 242 694 l 550 694 l 550 756 q 618 926 550 869 q 807 983 686 983 l 815 983 l 815 885 l 801 885 q 691 852 728 885 q 654 747 654 819 l 654 694 l 1011 694 l 1011 0 l 907 0 l 907 603 m 1015 947 l 1015 811 l 903 811 l 903 947 l 1015 947 z "},"ﬄ":{"ha":1101,"x_min":18,"x_max":1011,"o":"m 801 885 q 691 852 728 885 q 654 747 654 819 l 654 694 l 815 694 l 815 603 l 654 603 l 654 0 l 550 0 l 550 603 l 242 603 l 242 0 l 138 0 l 138 603 l 18 603 l 18 694 l 138 694 l 138 756 q 206 926 138 869 q 394 983 274 983 l 403 983 l 403 885 l 389 885 q 278 852 315 885 q 242 747 242 819 l 242 694 l 550 694 l 550 756 q 618 926 550 869 q 807 983 686 983 l 815 983 l 815 885 l 801 885 m 1011 0 l 907 0 l 907 972 l 1011 972 l 1011 0 z "}}}
